<?xml version="1.0" standalone="no"?>
<!DOCTYPE svg PUBLIC "-//W3C//DTD SVG 1.1//EN" "http://www.w3.org/Graphics/SVG/1.1/DTD/svg11.dtd">
<svg width="100%" height="100%" viewBox="0 0 2108 936" version="1.1" xmlns="http://www.w3.org/2000/svg" xmlns:xlink="http://www.w3.org/1999/xlink" xml:space="preserve" style="fill-rule:evenodd;clip-rule:evenodd;stroke-linejoin:round;stroke-miterlimit:1.41421;">
    <g id="Ebene 1" transform="matrix(4.16667,0,0,4.16667,0,0)">
        <path d="M235.993,130.696L262.379,93.609L246.194,93.609L220.143,130.361L246.905,168.291L262.733,168.291L235.993,130.696Z" style="fill:white;fill-rule:nonzero;"/>
        <rect x="271.665" y="93.608" width="13.204" height="74.683" style="fill:white;"/>
        <path d="M330.424,92.338C319.296,92.338 308.743,94.753 299.054,99.514L298.272,99.899L298.272,168.291L311.597,168.291L311.597,108.019C317.707,106.332 323.654,105.477 329.286,105.477C333.274,105.477 336.606,105.935 339.189,106.838C341.632,107.694 343.406,108.903 344.46,110.43C345.598,112.079 346.367,113.627 346.744,115.028C347.138,116.476 347.337,118.163 347.337,120.043L347.337,168.291L360.659,168.291L360.659,120.043C360.659,111.328 357.961,104.449 352.639,99.595C347.352,94.78 339.879,92.338 330.424,92.338" style="fill:white;fill-rule:nonzero;"/>
        <path d="M394.977,73.235L381.665,73.235L381.665,93.572L369.02,93.572L369.02,105.87L381.665,105.87L381.665,147.75C381.665,152.26 382.429,156.123 383.936,159.23C385.482,162.422 387.573,164.74 390.145,166.12C392.576,167.418 394.795,168.303 396.747,168.749C398.684,169.191 400.701,169.416 402.74,169.416L403.097,169.416C406.324,169.416 409.591,168.818 412.809,167.643L413.727,167.307L413.727,154.4L411.763,155.265C409.398,156.308 406.792,156.836 404.018,156.836C400.53,156.836 398.119,156.22 396.855,155.011C395.608,153.812 394.977,151.559 394.977,148.314L394.977,105.87L413.727,105.87L413.727,93.572L394.977,93.572L394.977,73.235Z" style="fill:white;fill-rule:nonzero;"/>
        <path d="M474.104,151.064C470.629,155.085 464.919,157.122 457.133,157.122C449.35,157.122 443.655,155.062 440.204,151.002C436.696,146.877 434.918,140.106 434.918,130.877C434.918,121.648 436.696,114.876 440.204,110.752C443.655,106.693 449.351,104.635 457.133,104.635C464.92,104.635 470.63,106.672 474.103,110.69C477.631,114.772 479.419,121.564 479.419,130.877C479.419,140.191 477.631,146.984 474.104,151.064M489.586,111.682C487.458,106.324 484.496,102.25 480.786,99.567C477.157,96.948 473.383,95.065 469.575,93.972C465.794,92.887 461.597,92.337 457.097,92.337C452.594,92.337 448.419,92.887 444.687,93.973C440.926,95.067 437.179,96.948 433.551,99.567C429.839,102.244 426.878,106.32 424.746,111.683C422.652,116.962 421.592,123.419 421.592,130.877C421.592,138.334 422.652,144.789 424.746,150.068C426.879,155.436 429.842,159.514 433.551,162.188C437.172,164.799 440.918,166.68 444.686,167.776C448.426,168.866 452.601,169.416 457.097,169.416C461.589,169.416 465.788,168.866 469.576,167.777C473.392,166.68 477.165,164.799 480.786,162.188C484.494,159.51 487.455,155.432 489.586,150.068C491.682,144.795 492.745,138.34 492.745,130.877C492.745,123.414 491.682,116.955 489.586,111.682" style="fill:white;fill-rule:nonzero;"/>
        <g transform="matrix(0.24,0,0,0.24,0,0)">
            <path d="M0,0L0,757.301L917.263,935.605L917.263,178.704L0,0ZM734.167,515.463C732.546,502.65 730.251,491.609 727.342,482.655C724.417,473.642 719.505,462.596 712.738,449.813C705.813,436.767 697.634,426.025 688.421,417.888C679.151,409.7 666.63,402.55 651.196,396.646C635.717,390.704 618.25,387.696 599.284,387.696C508.196,387.696 462.013,441.234 462.013,546.817L462.013,551.213C462.013,581.325 466.192,607.38 474.446,628.655C482.825,650.238 494.646,666.671 509.588,677.505C524.217,688.117 539.367,695.705 554.613,700.034C569.734,704.342 586.559,706.517 604.634,706.517L606.409,706.517C648.459,706.517 684.801,699.367 714.438,685.259L717.101,683.992L717.101,628.351L710.063,632.484C685.696,646.834 651.621,654.109 608.788,654.109C579.021,654.109 556.375,647.634 541.475,634.855C527.559,622.925 518.913,603.671 515.738,577.571L735.151,577.571L736.546,551.809L736.546,538.913C736.546,535.505 735.767,527.83 734.167,515.463ZM288.921,387.696C242.746,387.696 198.95,397.721 158.738,417.48L156.129,418.763L156.129,701.834L209.317,701.834L209.317,450.98C235.184,443.759 260.359,440.105 284.2,440.105C300.942,440.105 314.946,442.038 325.829,445.846C336.25,449.5 343.834,454.688 348.371,461.25C353.171,468.209 356.434,474.767 358.063,480.759C359.721,486.892 360.563,494.03 360.563,501.967L360.563,701.834L413.742,701.834L413.742,501.967C413.742,465.996 402.625,437.621 380.7,417.634C358.913,397.767 328.034,387.696 288.921,387.696ZM805.755,701.213L917.263,543.171L808.713,390.038L741.276,390.038L851.217,544.567L739.801,701.213L805.755,701.213ZM683.238,529.842L515.509,529.842C517.817,496.925 525.155,473.217 537.35,459.334C549.909,445.021 570.746,437.763 599.284,437.763C617.642,437.763 633.196,441.938 645.517,450.167C657.784,458.375 666.38,468.721 671.059,480.917C675.98,493.775 679.301,504.425 680.938,512.559C682.175,518.771 682.946,524.558 683.238,529.842Z" style="fill:white;"/>
        </g>
        <path d="M220.143,42.889L220.143,0L0,0L220.143,42.889Z" style="fill:white;fill-opacity:0.752941;fill-rule:nonzero;"/>
        <path d="M220.143,42.889L271.665,52.927L505.859,37.471L220.143,0L220.143,42.889Z" style="fill:white;fill-opacity:0.552941;fill-rule:nonzero;"/>
    </g>
</svg>
