<?xml version="1.0" standalone="no"?>
<!DOCTYPE svg PUBLIC "-//W3C//DTD SVG 1.1//EN" "http://www.w3.org/Graphics/SVG/1.1/DTD/svg11.dtd">
<svg width="100%" height="100%" viewBox="0 0 284 114" version="1.1" xmlns="http://www.w3.org/2000/svg" xmlns:xlink="http://www.w3.org/1999/xlink" xml:space="preserve" style="fill-rule:evenodd;clip-rule:evenodd;stroke-linejoin:round;stroke-miterlimit:1.41421;">
    <clipPath id="_clip1">
        <path d="M262.866,47.02C262.79,46.962 262.691,46.924 262.627,46.86C262.575,46.796 262.546,46.719 262.505,46.643C262.18,46.081 262.168,45.377 261.982,44.663C261.942,44.491 261.942,44.344 261.895,44.184C261.738,43.672 261.546,43.25 261.355,42.79C261.232,42.47 261.087,42.138 260.959,41.812C260.778,41.352 260.645,40.874 260.47,40.414C260.249,39.823 260.11,39.203 259.889,38.615C259.808,38.388 259.773,38.161 259.692,37.931C259.436,37.253 259.261,36.54 258.994,35.869C258.785,35.338 258.581,34.798 258.372,34.271C258.303,34.105 258.209,33.933 258.134,33.772C257.977,33.446 257.849,33.114 257.681,32.81C257.599,32.669 257.565,32.513 257.489,32.369C257.239,31.925 257.03,31.436 256.803,30.975C256.483,30.323 256.227,29.626 255.965,28.923C255.872,28.629 255.785,28.335 255.692,28.041C255.727,27.936 255.902,27.795 255.977,27.715C256.204,27.463 256.425,27.216 256.658,26.967C257.658,25.862 258.518,24.944 260.048,24.391C260.373,24.273 260.739,24.263 261.101,24.167C261.223,24.135 261.368,24.157 261.484,24.128C261.56,24.112 262.007,24.099 262.054,24.128C262.205,24.128 262.211,24.221 262.281,24.304C262.444,24.509 262.59,24.713 262.735,24.943C263.159,25.598 263.513,26.314 263.816,27.116C263.956,27.487 264.025,27.861 264.147,28.263C264.287,28.752 264.339,29.311 264.461,29.848C264.524,30.136 264.508,30.449 264.565,30.733C264.583,31.072 264.606,31.407 264.629,31.746L264.629,32.021C264.657,32.155 264.611,32.344 264.646,32.494C264.675,32.66 264.675,32.97 264.646,33.13C264.612,33.283 264.658,33.485 264.629,33.619C264.629,33.814 264.623,34.009 264.623,34.207C264.605,34.261 264.623,34.37 264.605,34.443C264.541,34.779 264.593,35.172 264.529,35.504C264.507,35.824 264.483,36.143 264.46,36.463C264.413,36.687 264.437,36.933 264.39,37.166C264.297,38 264.204,38.837 264.106,39.671C263.972,40.33 263.984,41.055 263.85,41.712C263.827,41.903 263.809,42.095 263.791,42.287C263.698,42.728 263.71,43.233 263.617,43.681C263.611,43.796 263.605,43.911 263.594,44.019C263.535,44.32 263.559,44.678 263.495,44.977C263.489,45.066 263.483,45.156 263.483,45.239C263.442,45.431 263.465,45.667 263.424,45.853L263.424,46.032C263.406,46.14 263.43,46.275 263.401,46.403C263.355,46.633 263.361,46.985 263.355,47.228C263.174,47.211 262.993,47.103 262.866,47.02M245.501,15.527C245.399,15.546 245.289,15.562 245.185,15.578C244.984,15.639 244.789,15.68 244.606,15.766C243.79,16.14 243.103,16.718 242.653,17.498C242.178,18.323 241.934,19.317 241.661,20.372C241.574,20.73 241.568,21.11 241.496,21.471C241.487,21.586 241.475,21.708 241.47,21.823C241.408,22.124 241.423,22.494 241.423,22.849C241.423,23.028 241.406,23.252 241.435,23.411C241.441,23.536 241.447,23.667 241.453,23.798C241.471,23.984 241.497,24.169 241.517,24.36C241.735,25.3 241.842,26.294 242.063,27.243C242.159,27.659 242.179,28.097 242.279,28.502C242.307,28.688 242.331,28.876 242.36,29.064C242.506,29.7 242.532,30.403 242.673,31.049C242.735,31.317 242.735,31.595 242.789,31.848C242.836,32.053 242.812,32.241 242.856,32.449C242.984,33.028 242.969,33.683 243.091,34.271C243.123,34.409 243.112,34.556 243.138,34.684C243.184,34.898 243.167,35.122 243.207,35.32C243.213,35.397 243.213,35.47 243.219,35.547C243.278,35.841 243.263,36.186 243.323,36.484C243.323,36.57 243.329,36.66 243.329,36.743C243.393,37.053 243.361,37.408 243.423,37.721C243.428,37.817 243.434,37.919 243.434,38.021C243.51,38.404 243.446,38.852 243.525,39.242C243.556,39.383 243.525,39.53 243.55,39.655C243.55,39.808 243.556,39.965 243.562,40.118C243.612,40.373 243.556,40.693 243.606,40.952L243.606,41.315C243.644,41.52 243.629,41.858 243.629,42.095L243.629,42.338C243.661,42.505 243.641,42.741 243.641,42.926C243.641,43.265 243.653,43.642 243.629,43.961C243.594,44.377 243.673,44.867 243.594,45.244C243.573,45.34 243.597,45.461 243.585,45.532C243.55,45.699 243.591,45.871 243.562,46.024C243.545,46.088 243.574,46.184 243.55,46.235C243.55,46.465 243.434,46.51 243.323,46.606C243.236,46.676 243.167,46.785 243.085,46.861C242.885,47.021 242.695,47.187 242.495,47.34C241.933,47.775 241.335,48.158 240.663,48.484C240.317,48.651 239.934,48.759 239.561,48.893C239.16,49.04 238.724,49.072 238.299,49.193C238.177,49.213 238.049,49.225 237.924,49.244C237.618,49.321 237.252,49.302 236.939,49.378C236.799,49.41 236.654,49.384 236.529,49.417C236.369,49.455 236.198,49.417 236.052,49.455C235.959,49.48 235.857,49.474 235.758,49.474C235.659,49.474 235.558,49.474 235.473,49.494L235.264,49.494C235.067,49.538 234.811,49.494 234.607,49.538L234.392,49.538C234.235,49.583 234.061,49.583 233.892,49.583C233.714,49.577 233.543,49.577 233.386,49.615C233.264,49.621 233.148,49.628 233.032,49.628C232.764,49.691 232.444,49.653 232.178,49.717C232.096,49.717 232.015,49.723 231.928,49.73C231.759,49.769 231.575,49.743 231.399,49.788C230.968,49.896 230.498,49.89 230.087,50.005C229.997,50.018 229.904,50.03 229.816,50.037C229.444,50.146 229.06,50.178 228.694,50.293C227.531,50.645 226.334,50.894 225.229,51.303C224.822,51.45 224.42,51.559 224.045,51.725C223.804,51.84 223.571,51.898 223.333,52C222.682,52.3 222.024,52.582 221.454,52.959C221.068,53.221 220.661,53.445 220.399,53.841C220.292,54.001 220.245,54.212 220.239,54.436L220.239,54.532C220.251,54.935 220.373,55.363 220.489,55.612C221.082,56.871 222.065,57.613 223.111,58.374C223.583,58.713 224.099,58.98 224.589,59.307C224.67,59.359 224.754,59.384 224.839,59.435C224.986,59.518 225.135,59.615 225.283,59.698C225.339,59.729 225.39,59.736 225.443,59.768C225.884,60.068 226.405,60.318 226.896,60.553C227.088,60.649 227.292,60.778 227.487,60.865C228.053,61.14 228.618,61.396 229.187,61.652C229.603,61.843 230.037,61.939 230.463,62.119C231.364,62.482 232.31,62.791 233.234,63.131C234.069,63.438 234.947,63.615 235.79,63.916C236.09,64.025 236.406,64.062 236.7,64.152C237.043,64.228 237.386,64.306 237.729,64.377C237.912,64.402 238.095,64.428 238.278,64.453L238.741,64.453C238.793,64.394 238.84,64.344 238.891,64.287L238.891,63.93C238.81,63.731 238.345,63.559 238.141,63.469C237.373,63.112 236.56,62.836 235.801,62.465C235.728,62.432 235.629,62.381 235.563,62.33C235.548,62.31 235.531,62.291 235.519,62.266C235.444,62.215 235.362,62.215 235.281,62.176C235.118,62.106 234.947,62.043 234.775,61.965C234.203,61.709 233.603,61.486 233.019,61.217C232.251,60.865 231.46,60.567 230.702,60.208C230.005,59.876 229.309,59.53 228.621,59.198C228.164,58.974 227.705,58.693 227.271,58.444C226.937,58.258 226.594,58.092 226.28,57.888C226.217,57.843 226.143,57.83 226.077,57.785C225.876,57.644 225.638,57.549 225.431,57.408C225.315,57.325 225.16,57.152 225.033,57.108C225.1,56.922 225.193,56.775 225.283,56.622C225.309,56.577 225.321,56.494 225.365,56.462C225.449,56.385 225.594,56.385 225.705,56.335C225.987,56.207 226.298,56.149 226.612,56.034C227.228,55.817 227.925,55.753 228.589,55.574C228.833,55.51 229.095,55.51 229.327,55.452C229.383,55.446 229.443,55.439 229.496,55.439C229.769,55.369 230.095,55.369 230.371,55.298C230.437,55.298 230.508,55.285 230.574,55.285C231.002,55.182 231.496,55.221 231.927,55.106C232.049,55.081 232.171,55.1 232.281,55.074C232.481,55.023 232.691,55.055 232.88,55.01C233.107,54.959 233.368,54.991 233.586,54.933C233.874,54.914 234.159,54.888 234.45,54.863C235.484,54.748 236.525,54.626 237.56,54.511C237.673,54.485 237.807,54.492 237.938,54.46C238.456,54.326 239.031,54.338 239.537,54.198C239.653,54.179 239.772,54.166 239.891,54.147C240.467,53.987 241.066,53.936 241.627,53.763C242.949,53.347 244.193,52.938 245.183,52.178C246.055,51.5 246.642,50.567 247.079,49.404C247.235,48.988 247.317,48.535 247.433,48.081C247.532,47.685 247.52,47.256 247.601,46.847C247.636,46.681 247.607,46.514 247.636,46.368C247.642,46.177 247.642,45.978 247.648,45.786C247.677,45.639 247.66,45.434 247.66,45.268C247.66,45.057 247.686,44.801 247.648,44.611C247.625,44.489 247.66,44.323 247.636,44.221L247.636,43.959C247.607,43.531 247.575,43.103 247.543,42.674C247.473,42.329 247.502,41.939 247.433,41.588C247.386,41.358 247.392,41.104 247.342,40.864C247.192,40.164 247.177,39.407 247.02,38.717C246.999,38.544 246.976,38.365 246.957,38.193C246.811,37.557 246.788,36.867 246.648,36.231C246.627,36.071 246.61,35.905 246.592,35.745C246.493,35.307 246.49,34.805 246.398,34.358C246.354,34.16 246.369,33.949 246.331,33.76C246.265,33.45 246.3,33.105 246.241,32.801C246.215,32.36 246.189,31.926 246.16,31.485L246.16,31.101C246.128,30.935 246.128,30.619 246.16,30.453L246.16,30.114C246.206,29.887 246.172,29.609 246.215,29.392C246.224,29.277 246.233,29.159 246.241,29.04C246.305,28.717 246.305,28.369 246.387,28.056C246.486,27.656 246.544,27.228 246.684,26.857C246.861,26.371 247.056,25.946 247.306,25.556C247.428,25.361 247.556,25.182 247.684,24.994C247.724,24.93 247.759,24.844 247.821,24.796C247.952,24.684 248.086,24.592 248.227,24.496C248.294,24.445 248.387,24.349 248.469,24.32C248.538,24.298 248.771,24.378 248.829,24.394C249.226,24.538 249.486,24.771 249.782,25.007C250.404,25.499 250.864,26.145 251.305,26.832C251.526,27.174 251.779,27.513 251.997,27.854C252.203,28.177 252.392,28.493 252.601,28.813C255.154,32.811 257.45,37.094 259.252,41.915C259.421,42.356 259.49,42.81 259.63,43.27C260.037,44.638 260.287,46.113 260.915,47.231C261.037,47.455 261.147,47.659 261.287,47.857C261.391,47.966 261.49,48.081 261.59,48.19C261.689,48.293 261.793,48.452 261.921,48.51C261.886,48.599 261.584,48.778 261.49,48.842C261.112,49.123 260.728,49.404 260.344,49.686C259.583,50.248 258.816,50.831 258.036,51.367C257.309,51.866 256.588,52.364 255.89,52.901C253.494,54.755 251.087,56.583 248.732,58.481C248.174,58.935 247.674,59.485 247.122,59.945C246.878,60.143 246.675,60.411 246.431,60.616C246.402,60.653 246.369,60.692 246.34,60.731C246.128,60.909 245.959,61.127 245.747,61.305C245.692,61.369 245.634,61.44 245.578,61.504C245.442,61.611 245.319,61.746 245.203,61.881C245.163,61.926 245.119,61.977 245.078,62.027C244.834,62.232 244.634,62.5 244.419,62.736C243.796,63.422 243.163,64.099 242.593,64.841L242.593,65.153C242.64,65.204 242.692,65.262 242.739,65.313L243.047,65.313C243.111,65.288 243.164,65.204 243.216,65.159C243.376,65.032 243.525,64.878 243.681,64.751C244.243,64.296 244.76,63.778 245.315,63.325C245.815,62.923 246.287,62.493 246.781,62.085C246.903,61.995 247.008,61.874 247.124,61.776C248.715,60.499 250.235,59.112 251.84,57.846C252.863,57.034 253.881,56.222 254.915,55.417C255.509,54.963 256.125,54.547 256.741,54.119C257.381,53.684 258.014,53.218 258.648,52.777C259.573,52.131 260.508,51.524 261.433,50.898C261.689,50.725 261.968,50.604 262.241,50.45C262.631,50.226 263.05,50.028 263.422,49.773C263.609,49.651 263.823,49.575 264.003,49.453C264.184,49.331 264.387,49.255 264.562,49.14C264.783,48.986 265.039,48.916 265.265,48.769C265.498,48.609 265.754,48.495 266.004,48.354C266.317,48.168 266.632,47.989 266.969,47.83C267.115,47.76 267.254,47.651 267.4,47.581C267.824,47.37 268.231,47.133 268.65,46.929C269.184,46.667 269.725,46.411 270.26,46.156C270.498,46.041 270.754,45.965 270.987,45.856C271.371,45.684 271.801,45.645 272.215,45.498C272.721,45.306 273.232,45.095 273.749,44.91C274.359,44.686 275.005,44.528 275.587,44.285C275.639,44.272 275.697,44.26 275.75,44.247C275.778,44.234 275.825,44.196 275.86,44.183C275.9,44.177 275.947,44.177 275.994,44.177C276.052,44.183 276.104,44.183 276.144,44.157C276.476,44.163 276.382,44.132 276.569,43.997L276.569,43.313C276.482,42.936 276.256,42.623 275.929,42.514C275.772,42.456 275.441,42.456 275.26,42.45L274.976,42.45C274.836,42.412 274.569,42.412 274.429,42.45L274.109,42.45C273.871,42.508 273.621,42.501 273.406,42.572C272.674,42.841 271.964,43.16 271.296,43.486C271.058,43.601 270.842,43.735 270.615,43.85C270.528,43.888 270.424,43.908 270.353,43.978L270.33,43.978C270.359,43.895 270.43,43.856 270.481,43.799C270.568,43.697 270.644,43.55 270.749,43.473L270.749,43.108C270.702,43.057 270.65,43 270.603,42.948C270.179,42.948 269.772,42.923 269.33,42.923C269.103,42.923 268.812,42.917 268.639,42.987C268.523,43.108 268.412,43.236 268.295,43.358C267.987,43.62 267.708,43.933 267.4,44.183C266.702,44.75 266.045,45.383 265.341,45.945C265.103,46.137 264.876,46.341 264.643,46.533C264.527,46.622 264.393,46.693 264.3,46.802L264.277,46.802C264.399,46.246 264.515,45.664 264.661,45.121C264.755,44.788 264.783,44.457 264.899,44.151C264.922,44.087 264.952,43.991 264.993,43.934C265.015,43.915 265.039,43.883 265.056,43.864C265.062,43.813 265.068,43.762 265.074,43.711C265.121,43.494 265.121,43.264 265.173,43.04C265.319,42.414 265.383,41.736 265.533,41.127C265.574,40.99 265.568,40.868 265.603,40.731C265.678,40.443 265.707,40.14 265.789,39.843C266.033,38.875 266.173,37.842 266.423,36.871C266.527,36.455 266.569,36.024 266.673,35.621C266.708,35.474 266.702,35.343 266.743,35.199C266.836,34.797 266.883,34.352 266.981,33.949C267.01,33.805 267.004,33.68 267.033,33.537C267.15,33.035 267.173,32.473 267.283,31.961C267.301,31.811 267.318,31.661 267.33,31.514C267.406,31.162 267.394,30.753 267.464,30.389C267.505,30.22 267.482,30.034 267.517,29.878C267.523,29.66 267.539,29.446 267.545,29.226C267.568,29.105 267.563,28.938 267.58,28.814L267.58,28.568C267.598,28.479 267.568,28.338 267.598,28.229C267.616,28.127 267.604,27.977 267.604,27.855L267.604,27.155C267.604,26.934 267.633,26.653 267.598,26.455C267.557,26.279 267.604,26.088 267.569,25.931C267.54,25.768 267.569,25.586 267.54,25.432L267.54,25.298C267.494,25.093 267.5,24.854 267.459,24.655C267.447,24.569 267.441,24.483 267.436,24.393C267.39,24.176 267.367,23.914 267.308,23.709C267.215,23.338 267.186,22.993 267.081,22.648C266.935,22.152 266.703,21.753 266.459,21.373C266.343,21.207 266.221,20.999 266.058,20.884C266.018,20.871 265.971,20.855 265.924,20.836C265.744,20.75 265.558,20.667 265.372,20.574C264.953,20.379 264.54,20.21 264.052,20.085C263.878,20.079 263.709,20.069 263.54,20.059L263.354,20.059C263.197,20.024 262.953,20.053 262.79,20.059C262.209,20.094 261.727,20.149 261.278,20.311C260.592,20.563 260.087,21.001 259.563,21.436C259.463,21.519 259.325,21.66 259.237,21.762C259.197,21.804 259.156,21.851 259.121,21.899C258.871,22.101 258.668,22.369 258.452,22.608C258.063,23.036 257.674,23.465 257.278,23.893C257.091,24.101 256.906,24.311 256.725,24.519C256.579,24.682 256.417,24.832 256.289,25.014C256.138,25.241 255.905,25.436 255.748,25.666C255.561,25.935 255.254,26.171 255.085,26.452C255.01,26.424 254.963,26.331 254.916,26.267C254.87,26.213 254.817,26.158 254.766,26.1C254.666,25.953 254.574,25.816 254.475,25.665C254.219,25.272 253.952,24.882 253.713,24.467C253.504,24.099 253.312,23.725 253.103,23.355C252.327,22.009 251.582,20.645 250.759,19.36C250.46,18.897 250.109,18.478 249.797,18.024C249.69,17.871 249.526,17.753 249.422,17.599C249.303,17.433 249.154,17.266 249.003,17.139C248.948,17.078 248.899,17.024 248.852,16.963C248.73,16.864 248.625,16.752 248.498,16.65C248.345,16.522 248.199,16.372 248.033,16.251C247.62,15.947 247.161,15.736 246.617,15.577C246.449,15.529 246.239,15.516 246.027,15.516C245.85,15.517 245.667,15.523 245.501,15.527"/>
    </clipPath>
    <g clip-path="url(#_clip1)">
        <path d="M198.122,35.067L254.452,-14.723L298.688,45.761L242.358,95.555L198.122,35.067Z" style="fill:white;fill-rule:nonzero;"/>
    </g>
    <g transform="matrix(0.8305,0,0,1,3.8154,108.941)">
        <text x="0px" y="0px" style="font-family:'HelveticaNeue-CondensedBlack';font-size:61.827px;fill:white;">C</text>
        <g transform="matrix(1,0,0,1,35.055,0)">
            <text x="0px" y="0px" style="font-family:'HelveticaNeue-CondensedBlack';font-size:61.827px;fill:white;">l<tspan x="16.696px " y="0px ">a</tspan></text>
        </g>
        <g transform="matrix(1,0,0,1,85.506,0)">
            <text x="0px" y="0px" style="font-family:'HelveticaNeue-CondensedBlack';font-size:61.827px;fill:white;">s</text>
        </g>
        <g transform="matrix(1,0,0,1,115.987,0)">
            <text x="0px" y="0px" style="font-family:'HelveticaNeue-CondensedBlack';font-size:61.827px;fill:white;">s<tspan x="29.37px " y="0px ">W</tspan></text>
        </g>
        <g transform="matrix(1,0,0,1,196.3,0)">
            <text x="0px" y="0px" style="font-family:'HelveticaNeue-CondensedBlack';font-size:61.827px;fill:white;">i<tspan x="16.696px " y="0px ">z</tspan></text>
        </g>
        <g transform="matrix(1,0,0,1,243.41,0)">
            <text x="0px" y="0px" style="font-family:'HelveticaNeue-CondensedBlack';font-size:61.827px;fill:white;">a</text>
        </g>
        <g transform="matrix(1,0,0,1,276.117,0)">
            <text x="0px" y="0px" style="font-family:'HelveticaNeue-CondensedBlack';font-size:61.827px;fill:white;">r</text>
        </g>
        <g transform="matrix(1,0,0,1,299.734,0)">
            <text x="0px" y="0px" style="font-family:'HelveticaNeue-CondensedBlack';font-size:61.827px;fill:white;">d</text>
        </g>
    </g>
</svg>
