<?xml version="1.0" standalone="no"?>
<!DOCTYPE svg PUBLIC "-//W3C//DTD SVG 1.1//EN" "http://www.w3.org/Graphics/SVG/1.1/DTD/svg11.dtd">
<svg width="100%" height="100%" viewBox="0 0 10930 3713" version="1.1" xmlns="http://www.w3.org/2000/svg" xmlns:xlink="http://www.w3.org/1999/xlink" xml:space="preserve" style="fill-rule:evenodd;clip-rule:evenodd;stroke-linejoin:round;stroke-miterlimit:1.41421;">
    <g transform="matrix(4.16667,0,0,4.16667,0,0)">
        <path d="M89.139,600.873L48.467,600.873L48.467,838.987L95.13,838.987C168.715,838.987 197.435,795.912 197.435,722.327C197.435,646.343 169.32,600.873 89.139,600.873ZM154.358,873.688C140.006,877.881 119.657,879.075 96.325,879.075L0,879.075L0,560.784L71.789,560.784C109.486,560.784 140.006,560.784 170.514,574.547C207.014,591.294 250.685,625.404 250.685,719.332C250.685,825.235 182.476,865.314 154.358,873.688Z" style="fill:white;fill-rule:nonzero;"/>
        <path d="M458.286,613.683C455.155,612.428 449.505,611.166 444.484,611.166C425.665,611.166 406.838,619.325 392.404,633.757C377.973,648.189 374.219,657.594 374.219,683.32L374.219,879.075L325.279,879.075L325.279,638.152C325.279,592.346 314.608,571.638 314.608,571.638L363.548,558.461C363.548,558.461 375.462,582.932 373.586,609.288C396.177,577.291 429.419,557.207 461.415,557.207C469.576,557.207 478.36,560.346 478.36,560.346L458.286,613.683Z" style="fill:white;fill-rule:nonzero;"/>
        <path d="M666.211,624.342C655.54,607.4 633.579,596.74 609.743,596.74C565.201,596.74 540.098,629.362 537.589,693.986L680.642,693.986C680.011,660.104 675.622,639.407 666.211,624.342ZM537.589,731.002L537.589,738.532C537.589,768.018 541.362,790.612 552.019,806.922C569.584,833.9 598.451,845.193 629.825,845.193C659.938,845.193 684.406,835.789 706.367,815.704L725.186,847.079C697.574,872.172 659.938,885.982 619.787,885.982C533.192,885.982 481.121,823.231 481.121,719.714C481.121,667.009 492.421,633.127 518.771,601.759C543.872,572.271 574.605,558.461 612.25,558.461C646.137,558.461 675.622,570.385 696.951,592.346C723.93,619.954 732.723,649.444 732.723,724.11L732.723,731.002L537.589,731.002Z" style="fill:white;fill-rule:nonzero;"/>
        <path d="M949.548,719.089C870.498,719.089 842.253,746.069 842.253,793.743C842.253,830.768 860.46,850.843 896.209,850.843C928.219,850.843 957.704,831.392 972.129,801.904L974.016,720.342C965.866,719.714 958.337,719.089 949.548,719.089ZM1021.08,891C999.742,884.096 984.054,867.152 978.414,845.193C948.29,875.312 923.822,887.236 888.06,887.236C810.887,887.236 787.672,840.173 787.672,798.139C787.672,727.24 848.537,685.827 953.31,685.827C966.49,685.827 975.27,686.459 975.27,686.459L975.27,664.499C975.27,636.889 974.016,625.598 965.236,615.561C955.196,604.27 942.64,598.616 923.188,598.616C888.06,598.616 843.519,617.448 823.444,635.633L798.974,600.507C840.376,572.894 884.929,558.461 930.096,558.461C973.393,558.461 1003.51,575.405 1016.68,607.4C1023.59,624.342 1024.21,648.189 1023.59,676.422L1021.08,779.32C1019.81,830.138 1022.96,843.315 1046.17,855.861L1021.08,891Z" style="fill:white;fill-rule:nonzero;"/>
        <path d="M1448.67,879.075L1448.67,648.189C1448.67,618.069 1434.86,602.384 1408.52,602.384C1380.28,602.384 1358.32,620.578 1325.7,650.701L1325.7,879.075L1276.13,879.075L1276.13,656.972C1276.13,638.152 1274.25,625.598 1267.34,616.814C1259.81,608.033 1249.78,604.27 1235.34,604.27C1211.5,604.27 1188.29,616.191 1155.65,645.68L1155.65,879.075L1108.6,879.075L1108.6,636.889C1108.6,591.722 1097.31,570.385 1097.31,570.385L1144.99,559.092C1144.99,559.092 1156.3,583.562 1156.3,605.524C1176.99,582.309 1215.27,558.461 1247.27,558.461C1278,558.461 1308.76,577.291 1320.06,610.541C1350.17,578.546 1388.43,558.461 1420.43,558.461C1466.85,558.461 1498.85,593.599 1498.85,643.171L1498.85,879.075L1448.67,879.075Z" style="fill:white;fill-rule:nonzero;"/>
        <rect x="1593.05" y="560.784" width="48.47" height="318.291" style="fill:white;fill-rule:nonzero;"/>
        <path d="M1925.71,601.468L1829.97,601.468L1829.97,879.075L1782.7,879.075L1782.7,601.468L1687.59,601.468L1687.59,560.784L1931.1,560.784L1925.71,601.468Z" style="fill:white;fill-rule:nonzero;"/>
        <path d="M2302.71,215.133C2303.85,142.352 2321.64,71.392 2356.52,0.681C2257.5,61.494 2181.23,125.467 2124.59,195.027C2049.69,287.022 2010.2,386.868 2004.48,499.13C2066.73,360.184 2174.45,271.817 2302.71,215.133Z" style="fill:white;fill-rule:nonzero;"/>
        <path d="M2313.22,233.299C2309.75,234.821 2306.31,236.363 2302.9,237.922C2280.15,248.312 2258.59,259.513 2238.21,271.561C2136.37,331.731 2064.88,411.419 2020.59,514.319C2021.67,514.125 2022.75,513.944 2023.82,513.744C2109.13,426.821 2210.67,380.356 2319.72,360.788C2323.15,360.175 2326.58,359.59 2330.02,359.027C2333.46,358.465 2336.9,357.925 2340.35,357.415C2359.6,354.571 2379.07,352.524 2398.7,351.205C2425.03,283.676 2466.19,223.584 2523.13,169.61C2448.22,184.546 2382.05,204.176 2323.57,228.838C2320.09,230.306 2316.64,231.797 2313.22,233.299Z" style="fill:white;fill-rule:nonzero;"/>
        <path d="M2455.32,370.22C2441.12,370.22 2427.19,370.566 2413.5,371.243C2409.72,371.43 2405.97,371.645 2402.23,371.884C2398.44,372.128 2394.67,372.4 2390.92,372.695C2375.23,373.931 2359.87,375.631 2344.85,377.799C2341.39,378.301 2337.94,378.829 2334.51,379.381C2331.06,379.936 2327.62,380.509 2324.2,381.114C2221.58,399.288 2135.14,440.319 2063.14,504.948C2057.89,509.667 2052.71,514.51 2047.6,519.48C2043.08,523.892 2038.6,528.391 2034.19,533C2033.43,533.794 2032.68,534.603 2031.92,535.408C2029.09,538.398 2026.29,541.424 2023.51,544.497C2022.07,546.096 2020.63,547.702 2019.19,549.324C2023.05,551.754 2026.94,554.095 2030.84,556.398C2071.99,580.704 2115.6,598.366 2161.26,616.832C2173.75,621.883 2186.31,626.963 2198.94,632.222C2240.38,649.498 2285.99,671.464 2319.47,715.511C2323.33,707.965 2327.16,700.43 2330.92,693.012C2342.67,669.866 2354.64,646.314 2367.49,623.051C2367.92,622.267 2368.35,621.484 2368.79,620.701C2380.34,599.906 2392.61,579.357 2406.12,559.56C2459.32,481.602 2530.47,423.713 2622.28,383.973C2562.66,374.747 2507.54,370.22 2455.32,370.22Z" style="fill:white;fill-rule:nonzero;"/>
    </g>
</svg>
