<?xml version="1.0" standalone="no"?>
<!DOCTYPE svg PUBLIC "-//W3C//DTD SVG 1.1//EN" "http://www.w3.org/Graphics/SVG/1.1/DTD/svg11.dtd">
<svg width="100%" height="100%" viewBox="0 0 308 61" version="1.1" xmlns="http://www.w3.org/2000/svg" xmlns:xlink="http://www.w3.org/1999/xlink" xml:space="preserve" style="fill-rule:evenodd;clip-rule:evenodd;stroke-linejoin:round;stroke-miterlimit:1.41421;">
    <g>
        <path d="M0.442,41.14L11.234,41.14L11.234,46.34C11.234,48.9 11.994,49.86 14.122,49.86C16.25,49.86 17.01,48.9 17.01,46.34L17.01,2.019L28.106,2.019L28.106,46.82C28.106,57.3 24.154,60.261 14.426,60.261C4.698,60.261 0.442,57.3 0.442,46.82L0.442,41.14ZM59.552,2.019L59.552,46.82C59.552,57.54 54.992,60.261 45.264,60.261C35.536,60.261 30.976,57.54 30.976,46.82L30.976,2.019L42.072,2.019L42.072,45.06C42.072,49.06 42.984,49.86 45.264,49.86C47.544,49.86 48.456,49.06 48.456,45.06L48.456,2.019L59.552,2.019ZM86.555,42.26L86.555,2.019L97.374,2.019L97.374,59.141L83.027,59.141L73.148,19.22L72.991,59.141L62.172,59.141L62.172,2.019L76.676,2.019L86.398,42.26L86.555,42.26ZM128.571,24.1L128.571,59.141L121.351,59.141L119.755,54.98C117.475,58.501 115.575,60.261 110.787,60.261C104.327,60.261 99.995,56.26 99.995,48.98L99.995,14.34C99.995,4.899 103.871,0.899 113.979,0.899C124.695,0.899 128.571,4.899 128.571,14.34L128.571,17.86L117.475,17.86L117.475,14.42C117.475,12.18 116.563,11.3 114.283,11.3C112.003,11.3 111.091,12.18 111.091,14.42L111.091,46.74C111.091,48.98 112.003,49.86 114.283,49.86C116.563,49.86 117.475,48.98 117.475,46.74L117.475,34.5L114.207,34.5L114.207,24.1L128.571,24.1ZM135.516,23.663L145.555,23.663L149.199,50.477L152.912,23.663L162.95,23.663L154.837,59.141L143.63,59.141L135.516,23.663ZM158.226,51.992L165.375,51.992L165.375,59.141L158.226,59.141L158.226,51.992ZM191.258,2.019L196.939,47.3L202.539,2.019L221.099,2.019L221.099,59.141L210.059,59.141L210.059,10.34L202.699,59.141L191.098,59.141L183.898,10.34L183.738,59.141L172.698,59.141L172.698,2.019L191.258,2.019ZM252.062,2.045L278.862,2.045L278.862,13.345L272.062,13.345L272.062,58.845L260.862,58.845L260.862,13.345L252.062,13.345L252.062,2.045ZM280.462,2.045L307.262,2.045L307.262,13.345L298.462,13.345L298.462,58.845L287.262,58.845L287.262,13.345L280.462,13.345L280.462,2.045ZM234.963,59.141L222.803,59.141L232.483,2.019L248.004,2.019L257.684,59.141L245.604,59.141L244.43,50.445L235.999,50.445L234.963,59.141ZM240.324,11.62L237.364,38.66L242.964,38.66L240.324,11.62Z" style="fill:white;fill-rule:nonzero;"/>
        <path d="M0.442,41.14L0.442,46.82C0.442,57.3 4.698,60.261 14.426,60.261C24.154,60.261 28.106,57.3 28.106,46.82L28.106,2.019L17.01,2.019L17.01,46.34C17.01,48.9 16.25,49.86 14.122,49.86C11.994,49.86 11.234,48.9 11.234,46.34L11.234,41.14L0.442,41.14Z" style="fill:white;"/>
        <path d="M59.552,2.019L48.456,2.019L48.456,45.06C48.456,49.06 47.544,49.86 45.264,49.86C42.984,49.86 42.072,49.06 42.072,45.06L42.072,2.019L30.976,2.019L30.976,46.82C30.976,57.54 35.536,60.261 45.264,60.261C54.992,60.261 59.552,57.54 59.552,46.82L59.552,2.019Z" style="fill:white;"/>
        <path d="M86.555,42.26L86.398,42.26L76.676,2.019L62.172,2.019L62.172,59.141L72.991,59.141L72.991,19.22L73.148,19.22L83.027,59.141L97.374,59.141L97.374,2.019L86.555,2.019L86.555,42.26Z" style="fill:white;"/>
        <path d="M128.571,24.1L114.207,24.1L114.207,34.5L117.475,34.5L117.475,46.74C117.475,48.98 116.563,49.86 114.283,49.86C112.003,49.86 111.091,48.98 111.091,46.74L111.091,14.42C111.091,12.18 112.003,11.3 114.283,11.3C116.563,11.3 117.475,12.18 117.475,14.42L117.475,17.86L128.571,17.86L128.571,14.34C128.571,4.899 124.695,0.899 113.979,0.899C103.871,0.899 99.995,4.899 99.995,14.34L99.995,48.98C99.995,56.26 104.327,60.261 110.787,60.261C115.575,60.261 117.475,58.501 119.755,54.98L121.351,59.141L128.571,59.141L128.571,24.1Z" style="fill:white;"/>
        <path d="M135.516,23.663L143.63,59.141L154.837,59.141L162.95,23.663L152.912,23.663L149.336,50.477L149.199,50.477L145.555,23.663L135.516,23.663Z" style="fill:white;"/>
        <rect x="158.226" y="51.992" width="7.149" height="7.149" style="fill:white;"/>
        <path d="M191.258,2.019L172.698,2.019L172.698,59.141L183.738,59.141L183.738,10.34L183.898,10.34L191.098,59.141L202.699,59.141L209.899,10.34L210.059,10.34L210.059,59.141L221.099,59.141L221.099,2.019L202.539,2.019L197.099,47.3L196.939,47.3L191.258,2.019Z" style="fill:white;"/>
        <path d="M252.062,2.045L278.862,2.045L278.862,13.345L272.062,13.345L272.062,58.845L260.862,58.845L260.862,13.345L252.062,13.345L252.062,2.045Z" style="fill:white;fill-rule:nonzero;"/>
        <path d="M280.462,2.045L307.262,2.045L307.262,13.345L298.462,13.345L298.462,58.845L287.262,58.845L287.262,13.345L280.462,13.345L280.462,2.045Z" style="fill:white;fill-rule:nonzero;"/>
        <path d="M234.963,59.141L222.803,59.141L232.483,2.019L248.004,2.019L257.684,59.141L245.604,59.141L244.43,50.445L235.999,50.445L234.963,59.141ZM240.324,11.62L242.964,38.66L237.364,38.66L240.324,11.62Z" style="fill:white;"/>
    </g>
</svg>
