<?xml version="1.0" standalone="no"?><!DOCTYPE svg PUBLIC "-//W3C//DTD SVG 1.1//EN" "http://www.w3.org/Graphics/SVG/1.1/DTD/svg11.dtd"><svg width="100%" height="100%" viewBox="0 0 1130 457" version="1.1" xmlns="http://www.w3.org/2000/svg" xmlns:xlink="http://www.w3.org/1999/xlink" xml:space="preserve" style="fill-rule:evenodd;clip-rule:evenodd;stroke-linejoin:round;stroke-miterlimit:1.41421;"><g><path d="M46.531,158.309c3.423,5.284 4.932,9.997 6.844,19.941c13.386,-13.065 29.893,-19.941 47.908,-19.941c16.271,0 29.624,5.284 39.957,16.068c2.784,2.703 5.469,6.19 7.784,9.613c17.981,-18.417 34.084,-25.681 55.657,-25.681c15.364,0 29.925,4.594 38.816,12.244c11.105,9.597 14.626,21.134 14.626,47.994l0,139.747l-49.919,0l0,-129.734c0,-23.518 -2.784,-28.065 -16.171,-28.065c-9.595,0 -23.081,6.544 -34.153,16.524l0,141.275l-48.714,0l0,-127.891c0,-24.522 -3.554,-30.279 -17.846,-30.279c-9.495,0 -22.647,4.918 -33.717,14.949l0,143.221l-50.256,0l0,-137.083c0,-28.383 -1.947,-40.644 -7.347,-50.287l46.531,-12.615Z" style="fill:#fff;fill-rule:nonzero;"/><path d="M349.412,215.843c-3.524,10.401 -5.401,24.207 -5.401,43.8c0,22.593 2.313,39.572 6.507,49.517c4.63,10.754 16.206,16.122 26.1,16.122c22.278,0 31.806,-19.944 31.806,-66.392c0,-26.508 -3.457,-43.817 -10.332,-52.672c-4.935,-6.476 -12.951,-10.333 -22.211,-10.333c-12.311,0 -22.31,7.647 -26.469,19.958ZM441.904,187.463c15.701,18.418 22.714,39.905 22.714,71.762c0,33.783 -7.749,56.862 -24.693,76.02c-14.894,16.876 -34.521,27.277 -64.783,27.277c-53.442,0 -88.299,-39.942 -88.299,-101.722c0,-61.834 35.225,-102.929 88.299,-102.929c28.013,0 49.889,9.63 66.762,29.592Z" style="fill:#fff;fill-rule:nonzero;"/><path d="M630.078,161.731l0,35.323l-86.821,125.526l90.211,0l-12.313,35.714l-144.66,0l0,-31.855l92.428,-128.608l-84.714,0l0,-36.1l145.869,0Z" style="fill:#fff;fill-rule:nonzero;"/><path d="M711.037,157.1l0,201.194l-51.433,0l0,-193.109l51.433,-8.085ZM717.074,107.615c0,17.684 -14.058,31.805 -31.837,31.805c-17.213,0 -31.368,-14.121 -31.368,-31.805c0,-17.647 14.627,-31.888 32.236,-31.888c17.246,0 30.969,14.241 30.969,31.888Z" style="fill:#fff;fill-rule:nonzero;"/><path d="M804.703,125.299l0,153.149c0,33.832 0.403,38.38 3.491,43.748c1.945,3.487 6.104,5.368 10.4,5.368c1.844,0 2.95,0 5.735,-0.707l8.791,30.679c-8.791,3.439 -19.559,5.356 -30.695,5.356c-21.943,0 -39.589,-10.337 -45.699,-26.809c-3.856,-9.997 -4.695,-16.169 -4.695,-44.182l0,-146.712c0,-25.698 -0.668,-41.399 -2.585,-59.129l52.608,-11.893c1.844,10.737 2.649,23.417 2.649,51.132Z" style="fill:#fff;fill-rule:nonzero;"/><path d="M911.386,125.299l0,153.149c0,33.832 0.44,38.38 3.594,43.748c1.809,3.487 5.969,5.368 10.266,5.368c1.944,0 3.119,0 5.835,-0.707l8.759,30.679c-8.759,3.439 -19.529,5.356 -30.701,5.356c-21.904,0 -39.584,-10.337 -45.724,-26.809c-3.925,-9.997 -4.564,-16.169 -4.564,-44.182l0,-146.712c0,-25.698 -0.769,-41.399 -2.751,-59.129l52.537,-11.893c2.116,10.737 2.749,23.417 2.749,51.132Z" style="fill:#fff;fill-rule:nonzero;"/><path d="M1058.77,272.309c-35.562,0 -48.041,6.474 -48.041,29.992c0,15.296 9.73,25.663 22.778,25.663c9.562,0 19.226,-4.998 26.842,-13.419l0.839,-42.236l-2.418,0ZM992.106,169.043c19.125,-8.086 35.567,-11.509 53.681,-11.509c33.08,0 55.691,12.249 63.439,34.153c2.551,8.055 3.725,14.194 3.491,35.327l-1.244,65.994c0,1.158 0,2.379 0,3.486c0,21.103 3.491,29.189 18.527,40.296l-27.313,31.534c-12.015,-5.032 -22.713,-13.888 -27.715,-23.837c-3.79,3.876 -8.051,7.634 -11.943,10.35c-9.527,6.914 -23.448,10.771 -39.555,10.771c-43.777,0 -67.563,-22.312 -67.563,-61.395c0,-46.146 31.938,-67.67 94.469,-67.67c3.76,0 7.315,0 11.577,0.438l0,-8.017c0,-21.925 -4.262,-29.222 -23.182,-29.222c-16.305,0 -35.664,8.016 -56.734,22.257l-21.906,-36.868c10.433,-6.544 18.118,-10.35 31.971,-16.088Z" style="fill:#fff;fill-rule:nonzero;"/></g></svg>