<?xml version="1.0" standalone="no"?>
<!DOCTYPE svg PUBLIC "-//W3C//DTD SVG 1.1//EN" "http://www.w3.org/Graphics/SVG/1.1/DTD/svg11.dtd">
<svg width="100%" height="100%" viewBox="0 0 2108 936" version="1.1" xmlns="http://www.w3.org/2000/svg" xmlns:xlink="http://www.w3.org/1999/xlink" xml:space="preserve" style="fill-rule:evenodd;clip-rule:evenodd;stroke-linejoin:round;stroke-miterlimit:1.41421;">
    <g id="Ebene 1" transform="matrix(4.16667,0,0,4.16667,0,0)">
        <path d="M0,0L0,181.752L220.143,224.545L220.143,42.889L0,0Z" style="fill:rgb(35,31,32);fill-rule:nonzero;"/>
        <path d="M235.993,130.696L262.379,93.609L246.194,93.609L220.143,130.361L246.905,168.291L262.733,168.291L235.993,130.696Z" style="fill:rgb(35,31,32);fill-rule:nonzero;"/>
        <rect x="271.665" y="93.608" width="13.204" height="74.683" style="fill:rgb(35,31,32);fill-rule:nonzero;"/>
        <path d="M330.424,92.338C319.296,92.338 308.743,94.753 299.054,99.514L298.272,99.899L298.272,168.291L311.597,168.291L311.597,108.019C317.707,106.332 323.654,105.477 329.286,105.477C333.274,105.477 336.606,105.935 339.189,106.838C341.632,107.694 343.406,108.903 344.46,110.43C345.598,112.079 346.367,113.627 346.744,115.028C347.138,116.476 347.337,118.163 347.337,120.043L347.337,168.291L360.659,168.291L360.659,120.043C360.659,111.328 357.961,104.449 352.639,99.595C347.352,94.78 339.879,92.338 330.424,92.338" style="fill:rgb(35,31,32);fill-rule:nonzero;"/>
        <path d="M394.977,73.235L381.665,73.235L381.665,93.572L369.02,93.572L369.02,105.87L381.665,105.87L381.665,147.75C381.665,152.26 382.429,156.123 383.936,159.23C385.482,162.422 387.573,164.74 390.145,166.12C392.576,167.418 394.795,168.303 396.747,168.749C398.684,169.191 400.701,169.416 402.74,169.416L403.097,169.416C406.324,169.416 409.591,168.818 412.809,167.643L413.727,167.307L413.727,154.4L411.763,155.265C409.398,156.308 406.792,156.836 404.018,156.836C400.53,156.836 398.119,156.22 396.855,155.011C395.608,153.812 394.977,151.559 394.977,148.314L394.977,105.87L413.727,105.87L413.727,93.572L394.977,93.572L394.977,73.235Z" style="fill:rgb(35,31,32);fill-rule:nonzero;"/>
        <path d="M474.104,151.064C470.629,155.085 464.919,157.122 457.133,157.122C449.35,157.122 443.655,155.062 440.204,151.002C436.696,146.877 434.918,140.106 434.918,130.877C434.918,121.648 436.696,114.876 440.204,110.752C443.655,106.693 449.351,104.635 457.133,104.635C464.92,104.635 470.63,106.672 474.103,110.69C477.631,114.772 479.419,121.564 479.419,130.877C479.419,140.191 477.631,146.984 474.104,151.064M489.586,111.682C487.458,106.324 484.496,102.25 480.786,99.567C477.157,96.948 473.383,95.065 469.575,93.972C465.794,92.887 461.597,92.337 457.097,92.337C452.594,92.337 448.419,92.887 444.687,93.973C440.926,95.067 437.179,96.948 433.551,99.567C429.839,102.244 426.878,106.32 424.746,111.683C422.652,116.962 421.592,123.419 421.592,130.877C421.592,138.334 422.652,144.789 424.746,150.068C426.879,155.436 429.842,159.514 433.551,162.188C437.172,164.799 440.918,166.68 444.686,167.776C448.426,168.866 452.601,169.416 457.097,169.416C461.589,169.416 465.788,168.866 469.576,167.777C473.392,166.68 477.165,164.799 480.786,162.188C484.494,159.51 487.455,155.432 489.586,150.068C491.682,144.795 492.745,138.34 492.745,130.877C492.745,123.414 491.682,116.955 489.586,111.682" style="fill:rgb(35,31,32);fill-rule:nonzero;"/>
        <path d="M204.292,130.696L177.906,93.609L194.091,93.609L220.143,130.361L193.381,168.291L177.552,168.291L204.292,130.696Z" style="fill:white;fill-rule:nonzero;"/>
        <path d="M69.341,93.047C58.259,93.047 47.748,95.453 38.097,100.195L37.471,100.503L37.471,168.44L50.236,168.44L50.236,108.235C56.444,106.502 62.486,105.625 68.208,105.625C72.226,105.625 75.587,106.089 78.199,107.003C80.7,107.88 82.52,109.125 83.609,110.7C84.761,112.37 85.544,113.944 85.935,115.382C86.333,116.854 86.535,118.567 86.535,120.472L86.535,168.44L99.298,168.44L99.298,120.472C99.298,111.839 96.63,105.029 91.368,100.232C86.139,95.464 78.728,93.047 69.341,93.047" style="fill:white;fill-rule:nonzero;"/>
        <path d="M143.828,105.063C148.234,105.063 151.967,106.065 154.924,108.04C157.868,110.01 159.931,112.493 161.054,115.42C162.235,118.506 163.032,121.062 163.425,123.014C163.722,124.505 163.907,125.894 163.977,127.162L123.722,127.162C124.276,119.262 126.037,113.572 128.964,110.24C131.978,106.805 136.979,105.063 143.828,105.063M176.2,123.711C175.811,120.636 175.26,117.986 174.562,115.837C173.86,113.674 172.681,111.023 171.057,107.955C169.395,104.824 167.432,102.246 165.221,100.293C162.996,98.328 159.991,96.612 156.287,95.195C152.572,93.769 148.38,93.047 143.828,93.047C121.967,93.047 110.883,105.896 110.883,131.236L110.883,132.291C110.883,139.518 111.886,145.771 113.867,150.877C115.878,156.057 118.715,160.001 122.301,162.601C125.812,165.148 129.448,166.969 133.107,168.008C136.736,169.042 140.774,169.564 145.112,169.564L145.538,169.564C155.63,169.564 164.352,167.848 171.465,164.462L172.104,164.158L172.104,150.804L170.415,151.796C164.567,155.24 156.389,156.986 146.109,156.986C138.965,156.986 133.53,155.432 129.954,152.365C126.614,149.502 124.539,144.881 123.777,138.617L176.436,138.617L176.771,132.434L176.771,129.339C176.771,128.521 176.584,126.679 176.2,123.711" style="fill:white;fill-rule:nonzero;"/>
        <path d="M220.143,42.889L220.143,0L0,0L220.143,42.889Z" style="fill:rgb(108,110,112);fill-rule:nonzero;"/>
        <path d="M220.143,42.889L271.665,52.927L505.859,37.471L220.143,0L220.143,42.889Z" style="fill:rgb(167,169,172);fill-rule:nonzero;"/>
    </g>
</svg>
