<?xml version="1.0" standalone="no"?>
<!DOCTYPE svg PUBLIC "-//W3C//DTD SVG 1.1//EN" "http://www.w3.org/Graphics/SVG/1.1/DTD/svg11.dtd">
<svg width="100%" height="100%" viewBox="0 0 3100 505" version="1.1" xmlns="http://www.w3.org/2000/svg" xmlns:xlink="http://www.w3.org/1999/xlink" xml:space="preserve" style="fill-rule:evenodd;clip-rule:evenodd;stroke-linejoin:round;stroke-miterlimit:1.41421;">
    <g transform="matrix(4.16667,0,0,4.16667,0,0)">
        <path d="M266.486,25.697C269.782,25.697 272.452,23.018 272.452,19.722L272.452,14.356C272.452,11.061 269.782,8.382 266.486,8.382C263.182,8.382 260.512,11.061 260.512,14.356L260.512,19.722C260.512,23.018 263.182,25.697 266.486,25.697Z" style="fill:white;fill-rule:nonzero;"/>
        <path d="M511.606,25.697C514.901,25.697 517.58,23.018 517.58,19.722L517.58,14.356C517.58,11.061 514.901,8.382 511.606,8.382C508.301,8.382 505.631,11.061 505.631,14.356L505.631,19.722C505.631,23.018 508.301,25.697 511.606,25.697Z" style="fill:white;fill-rule:nonzero;"/>
        <path d="M217.428,54.487C217.428,54.487 167.182,54.487 166.78,54.487C162.133,54.487 158.368,50.718 158.36,46.079L158.36,46.07L158.36,46.062C158.36,41.414 162.128,37.645 166.78,37.645C167.177,37.645 234.396,37.645 234.396,37.645L234.396,25.697L169.32,25.697C163.274,25.705 157.7,27.784 153.492,31.35C149.301,34.891 146.407,40.138 146.415,46.07C146.407,51.994 149.301,57.251 153.492,60.781C157.7,64.346 163.274,66.425 169.32,66.434C169.32,66.434 219.21,66.434 219.549,66.434C224.429,66.434 228.388,70.389 228.388,75.265C228.388,80.149 224.429,84.104 219.549,84.104C219.207,84.104 146.415,84.104 146.415,84.104L146.415,96.052L217.428,96.052C229.486,96.043 240.167,87.425 240.337,75.265C240.167,63.113 229.486,54.495 217.428,54.487Z" style="fill:white;fill-rule:nonzero;"/>
        <path d="M303.503,25.654L303.503,73.143C303.503,76.151 304.72,78.864 306.722,80.875C308.738,82.887 311.455,84.104 314.463,84.104L373.552,84.104L373.552,96.052L314.463,96.052C301.804,96.01 291.597,85.802 291.554,73.143L291.554,25.654L303.503,25.654Z" style="fill:white;fill-rule:nonzero;"/>
        <path d="M479.464,31.35C475.257,27.784 469.684,25.705 463.638,25.697L415.525,25.697C402.871,25.739 392.659,35.947 392.62,48.606C392.62,48.606 392.62,94.142 392.62,95.951L404.569,95.951C404.569,94.142 404.569,48.606 404.569,48.606C404.569,45.598 405.786,42.885 407.788,40.874C409.804,38.862 412.517,37.645 415.525,37.645C415.525,37.645 465.779,37.645 466.181,37.645C470.828,37.645 474.597,41.414 474.597,46.07C474.597,50.718 470.828,54.487 466.181,54.487C465.779,54.487 416.519,54.487 416.519,54.487L416.519,66.434L463.638,66.434C469.684,66.425 475.257,64.346 479.464,60.781C483.656,57.251 486.55,51.994 486.542,46.07C486.55,40.138 483.656,34.891 479.464,31.35Z" style="fill:white;fill-rule:nonzero;"/>
        <path d="M618.646,73.143C618.646,76.151 617.429,78.864 615.427,80.875C613.408,82.887 610.695,84.104 607.687,84.104L559.583,84.104C556.575,84.104 553.862,82.887 551.846,80.875C549.839,78.864 548.622,76.151 548.622,73.143L548.622,48.606C548.622,45.598 549.839,42.885 551.846,40.874C553.862,38.862 556.575,37.645 559.583,37.645L607.687,37.645C610.695,37.645 613.408,38.862 615.427,40.874C617.429,42.885 618.646,45.598 618.646,48.606L618.646,73.143ZM607.687,25.697L559.583,25.697C546.924,25.739 536.715,35.947 536.674,48.606L536.674,73.143C536.715,85.802 546.924,96.01 559.583,96.052L607.687,96.052C620.345,96.01 630.553,85.802 630.595,73.143L630.595,48.606C630.553,35.947 620.345,25.739 607.687,25.697Z" style="fill:white;fill-rule:nonzero;"/>
        <path d="M743.606,95.909L743.606,48.606C743.573,35.947 733.356,25.739 720.705,25.697L672.598,25.697C659.939,25.739 649.732,35.947 649.689,48.606L649.689,95.909L661.637,95.909L661.637,48.606C661.637,45.598 662.854,42.885 664.857,40.874C666.877,38.862 669.59,37.645 672.598,37.645L720.705,37.645C723.714,37.645 726.426,38.862 728.437,40.874C730.44,42.885 731.666,45.598 731.666,48.606L731.666,95.909L743.606,95.909Z" style="fill:white;fill-rule:nonzero;"/>
        <rect x="260.512" y="37.645" width="11.944" height="58.398" style="fill:white;fill-rule:nonzero;"/>
        <rect x="505.635" y="37.645" width="11.945" height="58.398" style="fill:white;fill-rule:nonzero;"/>
        <path d="M63.297,117.067L63.394,108.875C63.314,108.321 63.804,107.919 64.349,107.928C64.349,107.928 70.602,106.711 72.284,108.055C73.957,109.403 75.985,110.602 76.243,110.7C76.94,110.961 76.745,110.37 76.556,110.171C76.556,110.171 73.158,108.055 73.446,106.973C73.712,105.9 82.04,103.001 81.833,102.617C81.626,102.224 73.408,105.181 72.254,105.621C71.101,106.06 64.805,105.067 64.699,104.709C64.539,104.193 72.668,95.76 73.598,95.785C73.598,95.785 78.372,95.921 79.796,97.197C81.224,98.468 82.12,100.196 82.521,100.965C82.576,101.07 83.379,102.368 83.379,102.368C83.916,101.971 83.426,101.734 83.21,101.24C83.041,100.847 81.431,98.028 81.769,97.188C82.12,96.352 90.419,96.035 90.419,96.035L95.657,98.003C95.784,98.058 95.915,97.991 95.97,97.869C96.017,97.746 95.962,97.603 95.835,97.556C95.835,97.556 91.356,95.828 91.221,95.024C91.099,94.23 93.216,91.412 93.342,90.293C93.456,89.169 90.857,94.023 90.156,94.45C89.459,94.881 84.228,95.439 82.2,95.32C80.16,95.211 76.818,93.246 76.818,93.246C79.509,90.673 82.192,88.561 85.462,85.582C86.598,84.554 88.094,82.865 89.058,81.825C89.996,81.711 94.664,81.014 97.301,80.76C99.367,80.574 98.518,80.029 94.762,80.44C92.717,80.422 89.649,80.735 89.586,80.342C89.548,80.102 95.074,71.076 96.595,70.941C98.116,70.801 99.004,70.801 100.398,71.702C101.784,72.606 103.66,74.118 104.036,73.895C104.395,73.662 101.442,71.863 101.657,71.525C101.873,71.186 107.56,68.144 107.56,68.144C107.801,68.017 108.202,67.698 108.089,67.447C107.979,67.207 107.248,67.752 107.007,67.874C107.007,67.874 103.212,70.104 101.193,70.129C99.173,70.156 96.98,68.976 96.98,68.976C97.939,66.598 99.223,63.45 100.458,61.868C101.704,60.285 105.845,57.395 106.361,57.218L110.146,57.638C110.277,57.655 111.359,57.583 111.367,57.45C111.388,57.315 110.341,57.163 110.197,57.154C110.197,57.154 107.4,56.542 106.999,56.417C106.521,56.269 106.673,56.208 106.825,55.8C106.825,55.8 108.82,49.76 109.914,48.007C110.822,45.212 109.107,48.516 105.317,55.464C104.155,56.859 99.012,58.737 99.012,58.737C99.012,58.737 97.212,56.045 96.93,55.187C96.651,54.33 94.631,49.357 95.226,46.456C95.827,43.558 97.052,42.459 96.321,42.087C95.784,41.823 94.855,46.129 94.111,45.641C93.376,45.151 92.814,40.786 91.196,38.743C89.586,36.704 94.842,49.752 93.921,53.229C93.921,53.229 89.772,53.533 87.262,52.616C83.996,50.986 81.567,49.027 82.369,50.001C83.155,50.986 85.509,52.737 87.064,53.658C88.61,54.571 90.684,54.33 94.192,55.652C95.409,56.117 96.532,61.663 96.562,62.163C96.625,62.573 94.441,67.143 92.645,69.259C92.645,69.259 90.363,64.855 89.379,63.879C88.834,62.465 89.058,58.648 88.407,57.674C87.414,56.189 88.458,62.698 87.689,62.957C86.911,63.218 77.789,57.343 76.818,57.513C75.842,57.674 81.448,60.759 82.691,61.43C83.933,62.101 87.064,64.354 87.422,64.692C90.051,67.082 90.794,71.22 90.857,71.702C90.938,72.197 89.539,74.136 88.521,75.766C87.503,77.398 85.099,80.647 84.82,80.52C84.82,80.52 83.202,74.744 83.683,73.797C84.165,72.851 84.651,69.665 84.651,66.814C84.651,63.959 83.345,71.38 82.61,72.606C82.103,74.381 79.276,70.079 78.943,69.513C78.613,68.93 78.406,67.874 77.916,66.321C76.818,62.244 76.649,62.769 76.163,62.449C75.842,62.081 76.851,64.435 77.346,66.973C77.628,68.449 77.138,69.479 77.138,69.479C75.018,70.363 68.777,69.217 70.619,70.079C72.981,70.569 76.754,70.789 77.346,70.95C77.925,71.114 80.645,74.456 81.111,75.479C81.376,76.041 82.353,81.897 82.369,82.315C82.378,82.738 77.692,87.149 74.27,89.338C74.27,89.338 73.712,87.825 73.598,86.743C73.471,85.662 73.061,86.312 73.141,87.462C73.231,88.595 73.712,89.676 71.789,91.771C70.868,92.772 63.474,99.917 62.946,99.558C62.536,95.185 62.672,95.24 63.009,94.632C63.339,94.023 65.092,92.87 65.595,92.549C68.777,90.5 65.557,92.182 65.435,92.228C65.435,92.228 63.884,93.19 63.048,93.369C62.346,93.521 63.267,87.128 63.267,87.128C63.267,87.128 65.988,83.312 68.697,83.435C70.129,83.507 70.868,83.739 73.551,84.107C76.484,84.522 74.536,83.701 74.536,83.701C70.619,82.801 69.047,82.527 69.144,81.909C69.635,78.86 71.878,76.442 72.567,74.322C73.268,72.197 70.699,76.256 70.243,77.093C69.795,77.93 68.57,80 67.51,81.056C66.453,82.113 63.753,83.93 63.018,83.701C62.904,79.18 62.904,76.73 63.018,74.647C62.41,73.544 62.731,66.365 62.811,66.124C62.883,65.892 64.699,64.988 66.702,63.386C67.176,63.002 72.926,63.433 73.437,63.021C73.669,62.825 70.209,62.573 68.49,62.081C67.974,60.634 73.517,55.348 73.391,54.41C73.268,53.47 69.956,57.835 66.085,61.43C64.404,62.922 63.073,62.887 62.536,63.137C62.536,63.137 62.824,55.168 62.946,54.919C63.082,54.67 66.373,52.616 68.16,50.986C68.32,50.846 71.507,51.391 75.681,50.086C75.681,49.517 71.996,50.086 70.53,50.086C68.794,50.069 69.144,49.524 69.144,49.517C70.666,47.686 72.246,46.112 73.598,43.169C73.678,42.992 75.127,43.097 76.289,43.906C77.075,44.458 79.348,46.477 80.823,46.604C81.119,46.621 77.38,44.403 78.372,43.786C80.726,42.297 83.996,40.97 85.221,40.11C86.438,39.252 86.197,39.252 86.197,39.252C85.867,39.413 78.55,42.664 77.569,42.552C76.649,42.297 74.439,41.318 74.32,41.09C74.232,40.607 74.752,36.937 75.224,36.079C75.575,35.435 78.811,31.66 79.813,31.358C79.813,31.358 83.379,31.911 85.014,31.866C86.662,31.831 91.999,30.225 91.627,30.025C91.251,29.817 86.688,31.053 85.221,31.017C83.755,30.99 81.152,30.606 81,30.185C80.848,29.773 86.975,22.705 87.102,22.468C87.625,21.53 86.992,21.859 86.806,22.056L79.902,28.915L78.811,22.639C78.765,22.371 78.292,20.626 78.364,22.544C78.372,22.817 78.774,29.103 78.469,29.712C78.157,30.325 73.606,34.79 73.268,35.095C72.926,35.399 70.493,31.991 69.681,31.338C68.857,30.686 72.364,35.775 72.453,36.079C72.55,36.677 72.486,38.315 71.878,40.477C71.261,42.652 69.44,45.987 67.471,47.623C65.515,49.249 62.946,50.762 62.49,50.726C62.025,50.686 61.89,38.259 62.169,37.545C62.447,36.825 65.972,34.719 67.552,33.136C68.046,32.64 68.295,27.538 69.026,26.116C69.28,25.624 74.4,19.884 74.705,19.455C75.161,18.819 74.582,19.123 74.473,19.204C74.473,19.204 68.536,24.57 67.712,24.937L65.756,22.364C65.862,22.388 64.62,20.529 64.907,21.386C65.219,22.339 66.55,24.198 67.231,26.036C66.782,29.721 67.006,31.303 65.828,32.26C64.636,33.217 63.153,34.442 61.848,34.115C61.848,34.115 60.576,22.244 61.184,20.408C61.417,19.736 65.333,16.732 65.756,16.164C66.183,15.595 67.471,10.477 66.74,11.594C66.669,11.711 65.933,14.429 65.109,15.35C64.29,16.272 60.952,18.499 60.542,18.615C60.221,17.021 60.352,15.931 60.212,14.698C60.141,14.045 60.022,8.218 59.613,7.656C59.279,7.733 59.334,10.316 59.156,12.087C59.156,12.087 58.933,18.824 58.747,20.408C57.994,21.082 53.613,16.512 53.046,15.984C52.484,15.467 51.449,12.042 51.323,12.087C51.187,12.122 51.589,13.606 51.627,13.736C51.627,13.736 52.1,15.727 52.662,16.289C54.175,17.881 56.313,20.653 58.573,22.364C58.674,22.711 58.252,27.771 58.62,32.663C58.404,36.865 57.762,40.643 57.762,40.643C57.762,40.643 53.431,39.132 52.1,37.313C50.748,35.487 50.427,33.534 50.401,33.06C50.384,32.587 51.027,27.637 51.323,27.381C51.323,27.381 54.415,23.585 55.231,22.364C56.009,21.203 54.504,22.612 54.504,22.612C54.175,22.86 51.428,25.768 50.946,25.668C48.999,24.69 44.875,16.66 44.385,16.496C43.89,16.32 47.486,23.024 50.089,26.925C50.034,27.502 49.016,31.58 48.703,31.787C48.399,32 41.96,30.293 41.601,29.737C41.432,28.88 40.181,23.953 39.572,22.852C38.956,21.754 38.765,21.762 39.332,23.22C40.295,25.795 40.295,30.229 40.574,30.749C40.861,31.271 47.985,33.261 48.615,33.721C49.248,34.191 49.848,37.338 50.828,38.887C51.813,40.437 56.427,42.897 57.673,43.912C57.673,43.912 57.939,54.583 57.521,54.943C57.457,54.995 52.261,53.838 50.786,52.862C49.32,51.883 48.095,49.921 45.644,45.52C45.276,41.113 46.367,37.67 46.012,37.545C45.276,38.644 44.178,44.297 44.178,44.297C44.043,44.403 38.706,40.294 38.051,38.908C38.428,36.534 37.891,35.031 37.777,35.748C37.65,36.464 37.498,38.394 36.834,38.171C34.376,37.226 27.239,20.59 28.672,25.852C29.161,27.65 34.384,37.769 35.2,39.557C34.616,40.201 30.755,40.997 30.146,40.702C27.045,39.235 26.06,38.42 23.939,37.769C23.394,37.598 29.327,41.416 30.674,41.783C32.026,42.151 33.492,41.479 36.344,41.355C37.756,42.884 43.688,46.577 43.033,47.722C42.378,48.865 32.221,48.679 33.564,49.188C34.912,49.697 44.178,48.744 44.909,49.921C45.973,51.639 45.973,51.968 48.095,54.74C51.073,57.37 54.462,57.628 57.268,59.954C58.125,61.796 57.732,67.643 57.724,69.745C57.724,70.113 52.501,67.071 52.501,67.466C52.501,67.84 56.659,70.569 57.073,71.702C57.378,72.563 57.762,77.339 57.394,81.623C57.322,82.451 53.638,79.628 51.843,77.587C51.115,70.485 51.357,76.273 51.187,77.178C49.569,76.113 46.012,72.563 45.771,73.053C45.526,73.544 51.885,78.926 51.276,79.544C50.668,80.152 44.757,80.769 45.893,81.014C48.217,81.505 52.172,80.199 52.823,80.52C53.478,80.845 55.112,82.48 57.073,84.052C57.474,85.43 57.196,90.634 57.196,90.634C57.196,90.634 57.521,96.825 57.082,97.374C56.642,97.94 50.224,91.028 47.824,88.704C47.216,88.104 41.047,83.578 40.751,82.801C40.455,82.024 44.545,69.897 45.644,68.449C46.743,66.999 50.114,65.497 51.644,64.183C53.925,62.224 51.572,63.298 50.017,64.344C48.048,65.649 45.636,67.107 45.036,66.919C44.435,66.722 43.08,62.432 42.264,59.74C41.44,57.038 40.629,52.553 40.295,54.186C39.982,55.817 43.362,66.849 42.914,68.871C42.462,70.891 41.609,73.772 40.468,73.772C39.349,73.772 36.167,68.808 35.529,68.503C34.709,68.119 39.788,75.487 39.813,75.728C39.839,75.969 38.867,79.1 37.667,80.836C35.102,78.724 32.605,75.889 31.794,74.626C31.114,73.552 27.231,66.418 27.32,65.811C27.374,65.552 27.624,61.849 28.021,59.141C28.08,58.701 33.991,56.825 34.054,56.369C34.126,55.893 28.841,58.21 28.19,57.674C28.021,56.288 28.384,54.33 29.254,50.654C29.592,46.757 28.511,49.68 26.55,58.247C25.828,61.43 25.452,63.129 25.084,63.386C24.898,63.611 18.345,57.942 18.147,56.161C17.939,54.391 19.093,50.905 18.97,49.68C18.81,48.128 18.882,45.324 18.717,44.948C18.442,44.259 18.396,47.314 18.362,49.801C18.451,51.442 16.554,53.901 16.448,54.526C16.258,54.194 10.216,43.642 9.832,43.786C9.447,43.926 10.77,46.657 11.049,47.454C11.049,47.454 15.24,56.144 15.037,56.474C14.821,56.806 10.073,56.369 10.073,56.369C9.802,56.421 6.806,55.553 8.112,56.694C8.319,56.869 14.91,57.915 15.662,58.103C16.431,58.283 23.2,65.66 22.761,65.845C22.313,66.025 18.717,67.179 18.032,67.162C15.903,66.937 15.785,66.937 12.844,66.205C9.912,65.472 7.246,64.962 7.63,65.427C8.238,66.16 11.424,66.733 13.174,67.303C14.927,67.874 17.458,68.449 17.496,68.853C17.538,69.259 15.134,71.06 15.294,71.466C15.464,71.87 16.279,70.649 17.496,69.745C18.649,68.905 18.113,69.082 18.717,68.93C19.853,68.655 23.736,67.849 23.736,67.849C24.057,67.911 28.127,74.96 28.24,76.218L22.833,76.89C22.566,76.916 19.469,77.55 20.47,77.811C20.944,77.93 27.885,77.346 28.52,77.579C29.161,77.803 34.303,83.684 34.303,83.684C32.14,84.243 31.49,84.581 29.833,84.787C28.384,84.66 21.117,81.593 17.779,80.663C14.445,79.734 14.23,80.168 17.112,81.36C19.98,82.543 28.464,86.173 28.494,86.921C28.511,87.682 26.804,90.538 26.06,91.619C25.329,92.701 19.499,94.137 19.533,94.23C19.773,94.793 25.57,93.74 26.716,92.6C27.856,91.458 30.024,87.969 30.674,87.478C31.316,86.98 35.77,85.764 35.77,85.764C36.361,85.923 42.623,89.752 43.937,91.045C43.979,91.092 46.227,93.072 46.95,94.391C46.95,94.391 42.543,94.881 40.591,94.881C39.475,94.881 34.709,94.07 32.757,93.495C30.801,93.246 32.964,94.222 35.529,94.961C37.249,95.456 40.286,95.882 40.342,96.026C40.565,96.596 37.65,99.533 38.301,99.292C40.342,98.307 40.832,96.026 42.872,96.187C44.457,96.314 47.157,96.25 48.014,96.652C49.928,97.572 55.97,103.555 55.97,104.003C55.81,104.438 51.323,105.165 51.044,104.915C50.338,104.548 48.809,102.105 47.96,101.286C47.943,101.256 47.406,101.345 47.845,101.894C48.631,102.841 49.84,104.932 49.84,104.932C49.84,104.932 46.421,105.333 45.036,105.14C43.65,104.949 37.122,102.368 36.505,102.777C35.897,103.179 44.364,105.756 44.123,106.432C43.89,107.095 41.03,110.277 40.629,110.771C39.767,111.844 40.367,111.9 41.774,110.298C41.774,110.298 44.524,107.061 45.061,106.791C45.598,106.543 52.683,106.543 52.683,106.543C52.789,107.247 51.285,109.386 51.242,110.539C51.187,111.692 53.807,106.631 53.807,106.631L55.48,106.757C55.489,106.757 56.507,106.729 56.52,107.607C56.541,109.406 56.469,114.959 56.439,117.016C27.028,114.984 3.785,90.546 3.785,60.621C3.785,29.365 29.124,4.027 60.381,4.027C91.639,4.027 116.978,29.365 116.978,60.621C116.978,90.892 93.19,115.542 63.297,117.067ZM60.381,0.241C27.032,0.241 0,27.274 0,60.621C0,93.969 27.032,121 60.381,121C93.731,121 120.764,93.969 120.764,60.621C120.764,27.274 93.731,0.241 60.381,0.241Z" style="fill:white;fill-rule:nonzero;"/>
    </g>
</svg>
