<?xml version="1.0" standalone="no"?>
<!DOCTYPE svg PUBLIC "-//W3C//DTD SVG 1.1//EN" "http://www.w3.org/Graphics/SVG/1.1/DTD/svg11.dtd">
<svg width="100%" height="100%" viewBox="0 0 1458 341" version="1.1" xmlns="http://www.w3.org/2000/svg" xmlns:xlink="http://www.w3.org/1999/xlink" xml:space="preserve" style="fill-rule:evenodd;clip-rule:evenodd;stroke-linejoin:round;stroke-miterlimit:1.41421;">
    <path d="M161.216,81.828L116.644,81.828C112.581,81.828 109.306,78.594 109.188,74.566C109.181,74.497 109.166,74.419 109.166,74.353L109.166,29.931C109.166,25.8 105.819,22.453 101.688,22.453L66.841,22.453C62.709,22.453 59.363,25.8 59.363,29.931L59.363,74.341C59.363,78.472 56.013,81.822 51.881,81.822L7.387,81.822C7.219,81.825 7.069,81.859 6.903,81.872L7.441,81.872C3.363,81.928 0.063,85.238 0.056,89.325L0.056,124.206C0.056,124.2 0.056,124.194 0.056,124.191L0.056,89.344C0.056,89.338 0.056,89.331 0.056,89.325L0.056,88.731C0.044,88.912 0,89.087 0,89.272L0,124.15C0.013,128.278 3.353,131.616 7.481,131.616L51.875,131.616C56.003,131.616 59.347,134.959 59.347,139.094L59.363,183.497C59.363,187.628 62.709,190.978 66.841,190.978L101.688,190.978C105.819,190.978 109.166,187.628 109.166,183.497L109.141,139.088C109.141,134.956 112.491,131.609 116.619,131.609L161.1,131.609C165.128,131.581 168.381,128.363 168.497,124.35L168.497,89.075C168.388,85.1 165.191,81.922 161.216,81.828L161.216,81.828Z" style="fill:white;fill-rule:nonzero;"/>
    <path d="M1424.05,32.709L1424.05,56.797L1450.25,56.797C1454.48,56.956 1457.9,61.028 1457.9,65.419L1457.9,65.581C1457.9,69.812 1454.81,73.559 1450.74,74.209L1424.05,74.209L1424.05,130.188C1424.21,142.394 1424.54,149.719 1425.03,152.484C1425.35,155.25 1426.65,158.016 1428.93,160.619C1431.37,163.875 1435.28,165.991 1440.32,167.456C1443.42,168.269 1447.32,168.756 1452.2,169.081C1455.46,170.222 1457.9,173.638 1457.9,177.384L1457.9,178.356C1457.9,182.75 1454.65,186.656 1450.58,187.147C1441.46,186.656 1434.13,185.519 1428.28,183.894C1420.47,181.612 1414.6,177.869 1410.87,172.828C1408.1,168.922 1406.15,164.525 1405.17,159.644C1404.19,154.6 1403.71,147.113 1403.71,136.859L1403.71,74.209L1379.13,74.209C1375.06,73.559 1372.14,69.812 1372.14,65.581L1372.14,65.419C1372.14,61.028 1375.39,56.956 1379.62,56.797L1403.71,56.797L1403.71,34.5L1403.71,33.362C1403.54,28.806 1407.61,24.9 1412.49,24.9L1415.26,24.9C1419.82,24.9 1423.88,28.316 1424.05,32.709Z" style="fill:white;"/>
    <path d="M1059.36,187.147L1059.36,169.244C1062.13,169.409 1065.22,169.409 1068.31,169.409C1082.95,169.409 1093.7,168.594 1100.53,167.291C1107.2,165.991 1112.25,163.55 1115.66,159.809C1116.97,158.506 1117.95,156.553 1118.59,153.95C1118.76,153.784 1118.92,153.622 1118.92,153.459C1120.39,149.553 1124.13,146.138 1128.85,146.138L1132.11,146.138C1136.83,146.138 1141.05,149.878 1140.73,154.438L1140.73,155.575C1138.61,165.991 1133.57,173.478 1125.43,178.197C1115.02,184.216 1096.62,187.309 1070.59,187.309C1066.68,187.309 1062.94,187.309 1059.36,187.147Z" style="fill:white;"/>
    <path d="M1059.36,125.794L1059.36,108.222L1114.85,108.384C1117.29,108.384 1119.25,106.431 1119.25,103.988L1119.25,103.662L1119.41,103.662C1119.41,91.131 1115.99,87.063 1109.48,82.019C1105.09,78.766 1099.07,76.325 1091.09,75.022C1083.77,73.881 1073.19,73.231 1059.36,73.069L1059.36,55.169C1080.51,55.169 1095.82,56.303 1105.42,58.747C1115.18,61.028 1123.15,65.581 1129.01,72.253C1133.89,77.95 1137.31,84.459 1139.1,91.784C1140.57,97.969 1141.54,106.919 1141.87,118.472C1141.38,122.053 1138.28,124.981 1134.54,125.634L1096.46,125.794L1059.36,125.794L1059.36,125.794Z" style="fill:white;"/>
    <path d="M1223.72,151.672C1224.05,154.925 1224.7,157.528 1225.67,159.319C1227.14,162.25 1230.07,164.525 1234.46,166.316C1240.48,168.269 1257.41,169.409 1285.4,169.409C1302.82,169.409 1315.02,168.922 1321.85,168.269C1328.69,167.456 1333.57,165.991 1336.5,163.713C1340.57,160.619 1342.69,155.903 1342.69,149.391C1342.69,141.581 1340.24,136.375 1335.36,133.444C1330.48,130.675 1321.53,129.213 1308.51,129.375C1304.44,129.375 1284.91,129.213 1249.76,128.563C1240.64,128.4 1233.33,127.747 1227.79,126.447C1222.25,125.144 1217.87,123.194 1214.12,120.263C1207.28,114.894 1203.87,105.941 1203.87,93.25C1203.87,79.903 1208.1,70.141 1216.73,64.116C1221.29,60.863 1228.77,58.588 1239.02,57.122C1249.27,55.819 1264.24,55.169 1283.61,55.169C1305.26,55.169 1321.2,56.303 1331.45,58.588C1341.71,61.028 1349.35,65.094 1354.07,71.119C1356.35,74.044 1357.98,77.138 1358.63,80.394C1359.12,82.344 1359.28,85.437 1359.44,89.344C1358.79,93.412 1354.89,96.341 1350.5,96.341L1346.26,96.341C1342.52,96.341 1339.27,94.225 1337.8,91.131C1337.31,86.25 1336.17,82.997 1334.22,81.044C1331.45,78.278 1326.08,76.159 1317.95,75.022C1309.81,73.719 1298.26,73.069 1282.95,73.069C1254.97,73.069 1238.05,75.022 1232.19,78.928C1227.79,81.694 1225.51,86.741 1225.51,93.572C1225.51,100.572 1228.12,105.291 1233.16,107.569C1238.21,109.844 1248.46,110.822 1263.92,110.497C1279.05,110.338 1298.75,110.663 1323,111.637C1337.64,112.128 1348.21,115.381 1354.73,121.241C1361.23,127.1 1364.49,136.534 1364.49,149.231C1364.49,157.041 1363.35,163.225 1361.07,167.944C1358.79,172.828 1355.05,176.734 1350,179.822C1345.61,182.591 1338.29,184.544 1328.37,185.519C1318.28,186.822 1303.63,187.309 1284.59,187.309C1263.43,187.309 1247.64,186.656 1237.39,185.356C1226.98,184.216 1219.49,181.941 1214.61,178.522C1209.89,175.269 1206.31,171.362 1204.36,166.803C1203.22,164.038 1202.41,160.619 1201.92,156.553L1201.92,154.438C1201.59,149.719 1205.98,145.813 1211.03,145.813L1215.1,145.813C1218.85,145.813 1222.42,148.253 1223.72,151.672L1223.72,151.672Z" style="fill:white;"/>
    <path d="M1169.21,56.956L1175.55,56.956C1179.3,56.956 1182.39,60.053 1182.39,63.956L1182.39,178.522C1182.39,182.428 1179.3,185.519 1175.55,185.519L1169.21,185.519C1165.46,185.519 1162.21,182.428 1162.21,178.522L1162.21,63.956C1162.21,60.053 1165.46,56.956 1169.21,56.956L1169.21,56.956Z" style="fill:white;"/>
    <path d="M1169.21,0L1175.55,0C1179.3,0 1182.39,3.256 1182.39,6.997L1182.39,18.066C1182.39,21.969 1179.3,25.059 1175.55,25.059L1169.21,25.059C1165.46,25.059 1162.21,21.969 1162.21,18.066L1162.21,6.997C1162.21,3.256 1165.46,0 1169.21,0L1169.21,0Z" style="fill:white;"/>
    <path d="M1059.36,55.169L1059.36,73.069C1058.38,73.069 1057.57,73.069 1056.76,73.069C1043.41,73.069 1033.49,73.719 1026.49,75.022C1019.49,76.159 1014.12,78.278 1010.21,81.369C1003.87,86.413 1000.12,90.644 999.147,103.662L999.313,103.662C999.313,106.103 1001.42,108.056 1003.87,108.056L1059.36,108.222L1059.36,125.794L1011.19,125.794L1011.19,125.959L1003.22,125.959C1000.61,125.959 998.66,128.075 998.66,130.516L998.988,132.469C998.822,132.628 998.822,132.794 998.822,132.956C999.96,145.159 1003.05,153.784 1007.94,158.831C1011.84,162.897 1018.02,165.669 1026.65,167.128C1033.81,168.431 1044.72,169.081 1059.36,169.244L1059.36,187.147C1043.25,186.981 1030.56,186.169 1021.44,184.869C1010.21,183.078 1001.91,180.309 996.216,176.241C983.041,167.128 976.528,148.903 976.528,121.563C976.528,102.525 979.291,88.041 984.828,78.6C990.035,69.325 997.681,63.141 1007.61,60.053C1017.54,56.797 1034.13,55.169 1057.25,55.169L1059.36,55.169Z" style="fill:white;"/>
    <path d="M873.034,233.688L873.034,215.791C889.306,215.625 901.347,214.813 909.159,213.347C917.95,211.719 924.131,208.628 927.716,204.072C930.478,200.488 932.269,196.259 933.409,191.213C934.384,186.334 935.031,177.384 935.522,164.203L934.222,164.203C928.525,171.197 921.85,175.756 914.2,177.869C906.719,179.822 893.047,180.797 873.034,180.963L873.034,162.897C898.419,162.897 914.691,160.784 921.691,156.391C926.731,153.137 930.316,148.416 932.425,142.231C934.544,136.047 935.684,127.259 935.684,116.031C935.684,105.291 934.544,96.991 931.938,91.297C929.497,85.6 925.431,81.369 919.572,78.6C912.091,74.859 897.441,73.069 875.475,73.069C874.656,73.069 873.844,73.069 873.034,73.069L873.034,55.169C873.844,55.169 874.656,55.169 875.475,55.169C889.463,55.169 899.719,55.494 906.066,56.303C912.247,57.122 917.619,58.747 922.013,61.188C927.219,64.116 931.616,68.35 934.709,73.394L935.85,73.394L935.684,62.328C936.822,59.4 939.916,57.122 943.497,56.797L948.703,56.797C952.281,57.122 955.209,59.559 956.188,62.653L956.188,153.297C956.188,173.638 955.209,188.938 953.1,199.353C951.147,209.116 945.941,217.091 937.638,223.272C931.938,227.344 924.456,229.944 914.853,231.409C905.741,232.872 891.747,233.525 873.034,233.688L873.034,233.688Z" style="fill:white;"/>
    <path d="M873.034,55.169L873.034,73.069C849.272,73.231 833.488,75.347 825.513,79.416C815.422,84.459 810.538,97.478 810.538,118.309C810.538,139.466 816.075,152.647 827.466,158.016C834.3,161.272 849.272,162.897 872.869,162.897L873.034,162.897L873.034,180.963C872.381,180.963 871.891,180.963 871.238,180.963C853.831,180.963 840.484,180.147 830.881,178.522C821.281,177.056 814.122,174.45 809.075,170.709C802.078,165.503 796.872,158.666 793.613,150.206C790.359,141.741 788.731,130.841 788.731,117.656C788.731,89.016 797.519,70.628 815.097,62.162C820.628,59.559 827.953,57.769 836.741,56.797C845.2,55.656 857.244,55.169 873.034,55.169L873.034,55.169Z" style="fill:white;"/>
    <path d="M873.034,215.791L873.034,233.688C871.728,233.688 870.428,233.688 869.128,233.688C847.644,233.688 831.694,232.222 821.281,229.619C810.869,226.856 803.216,221.972 798.009,215.138C795.566,211.884 794.103,208.788 793.291,205.534C792.803,203.906 792.478,201.794 792.313,199.188C792.803,195.119 796.872,192.028 801.425,192.028L804.678,192.028C808.263,192.028 812.003,193.981 813.797,196.913C813.956,198.213 814.288,199.188 814.609,200.328L814.609,200.488C814.934,201.306 815.263,202.278 815.747,202.928C817.05,205.534 819.494,207.813 822.581,209.603C829.741,213.672 844.712,215.791 866.844,215.791L873.034,215.791Z" style="fill:white;"/>
    <path d="M268.797,150.044C269.938,152.484 271.563,154.272 274.981,155.413C280.675,157.528 291.253,158.506 306.716,158.506C322.662,158.506 333.403,157.691 339.259,155.903C344.956,154.272 347.888,151.019 347.888,146.3C347.888,141.741 345.119,138.816 339.587,137.188C336.981,136.534 322.988,136.047 297.6,135.725C273.841,135.725 259.359,135.234 253.825,134.422C238.366,132.469 227.95,127.422 222.581,119.45C218.35,113.428 216.397,105.291 216.397,95.203C216.397,75.834 223.556,63.141 237.878,57.284C248.619,52.891 271.728,50.609 307.203,50.609C329.659,50.609 345.934,51.425 356.022,53.216C366.113,54.844 374.088,58.097 379.619,62.816C383.2,65.581 385.641,69.166 387.103,73.231C388.081,75.834 388.731,79.091 389.381,83.159C389.547,87.063 386.778,90.319 383.038,91.297L343.491,91.297C340.887,90.644 338.772,89.016 337.797,86.903C337.797,86.413 337.634,86.091 337.309,85.6C337.147,85.272 336.981,85.113 336.822,84.95C332.753,82.506 322.338,81.206 305.737,81.206C290.441,81.206 279.862,82.019 274.169,83.484C268.472,85.113 265.544,87.878 265.544,91.947C265.544,97.316 269.45,100.244 277.422,100.731C283.606,101.222 305.9,101.547 344.469,101.875C363.022,101.875 376.366,105.128 384.5,111.15C392.8,117.334 397.031,127.913 397.031,142.884C397.031,152.806 395.403,160.947 392.15,167.128C388.897,173.316 383.85,178.034 376.853,181.125C365.297,186.334 340.725,189.1 303.134,189.1C279.213,189.1 261.963,188.122 251.547,186.334C241.131,184.381 232.997,180.797 226.975,175.269C222.256,171.034 219,165.175 217.047,157.856L216.884,154.6C216.722,150.044 220.791,146.3 225.672,146.3L260.822,146.3C263.916,146.3 267.169,147.928 268.797,150.044L268.797,150.044ZM557.813,152.159L571.809,152.159C576.366,152.159 580.109,155.903 580.109,160.619L580.109,180.309C580.109,184.869 576.366,189.422 571.809,188.772L567.416,189.1C566.928,189.1 566.441,189.1 566.116,189.1C550.328,189.1 538.613,188.122 530.963,186.497C523.316,184.703 517.131,181.612 512.25,176.891C508.669,173.478 506.228,169.572 504.6,165.503C503.134,161.434 502.159,155.903 501.834,148.744C501.672,146.138 501.509,138.978 501.509,127.584L501.509,89.344L483.772,89.344C479.375,89.344 475.797,85.759 475.797,81.369L475.797,61.675C475.797,57.284 479.375,53.703 483.772,53.703L501.509,53.703C501.509,53.216 501.347,52.728 501.347,52.241L501.347,31.409C501.347,26.853 505.088,23.106 509.644,23.106L543.169,23.106C547.725,23.106 551.469,26.853 551.469,31.409L551.469,52.241C551.469,52.891 551.469,53.378 551.303,54.028L567.416,54.028L567.416,54.194L572.297,54.194C576.691,54.194 580.109,57.609 580.109,62.003L580.109,81.369C580.109,85.759 576.691,89.344 572.297,89.344L550.819,89.344L550.819,127.584C550.819,137.838 551.469,144.347 552.931,146.95C554.234,149.231 555.534,151.019 557.813,152.159L557.813,152.159ZM420.628,53.703L454.153,53.703C458.709,53.703 462.45,57.447 462.45,62.003L462.45,177.384C462.45,181.941 458.709,185.681 454.153,185.681L420.628,185.681C416.072,185.681 412.328,181.941 412.328,177.384L412.328,62.003C412.328,57.447 416.072,53.703 420.628,53.703L420.628,53.703ZM683.609,50.609L683.609,81.206C668.15,81.369 657.734,82.834 652.525,85.6C647.319,88.531 644.228,90.319 643.9,99.597L644.391,99.597C644.55,101.875 646.503,103.662 648.784,103.828L683.609,103.988L683.609,130.516L644.066,130.516C644.066,137.188 644.391,142.069 645.366,144.997C646.181,147.766 647.969,150.206 650.409,152.159C655.294,155.737 666.359,157.528 683.609,157.528L683.609,189.1C682.306,189.1 681.003,189.1 679.703,189.1C660.666,189.1 646.019,188.122 635.766,186.334C625.513,184.381 617.375,181.288 611.353,176.734C605.169,171.85 600.775,165.503 598.334,157.528C596.059,149.391 594.916,137.188 594.916,120.425C594.916,107.894 595.244,98.622 596.219,92.272C597.197,85.925 598.822,80.394 601.425,75.184C606.631,64.769 616.075,57.934 629.906,54.681C641.459,52.075 659.363,50.775 683.609,50.609L683.609,50.609ZM420.628,0.166L454.153,0.166C458.709,0.166 462.45,3.906 462.45,8.463L462.45,29.294C462.45,33.85 458.709,37.591 454.153,37.591L420.628,37.591C416.072,37.591 412.328,33.85 412.328,29.294L412.328,8.463C412.328,3.906 416.072,0.166 420.628,0.166L420.628,0.166ZM683.609,130.516L683.609,103.988L718.597,104.15C721.038,104.15 722.991,102.034 722.991,99.597L723.313,99.597C723.313,97.316 723.156,96.016 722.991,95.366L722.991,95.203C722.991,94.388 722.825,94.063 722.503,92.922C722.013,90.969 721.038,89.344 719.572,87.713C715.344,83.322 703.95,81.206 685.4,81.206C684.75,81.206 684.259,81.206 683.609,81.206L683.609,50.609C683.934,50.609 684.422,50.609 684.75,50.609C706.719,50.609 722.178,51.425 731.125,53.05C747.075,55.656 757.975,61.675 764,70.791C770.019,80.066 772.947,95.525 772.947,117.169C772.947,118.634 772.947,121.075 772.788,124.494C771.813,127.913 768.228,130.353 764.488,130.353L751.956,130.516L683.609,130.516L683.609,130.516ZM683.609,189.1L683.609,157.528C694.513,157.528 698.744,157.041 704.278,156.225C709.647,155.413 713.391,153.95 715.344,151.997C715.831,151.506 716.153,151.181 716.478,150.531C716.478,150.697 716.644,150.697 716.644,150.853C718.597,148.253 721.691,145.975 725.103,145.487L762.047,145.487C766.441,145.975 770.181,149.553 769.859,153.95L769.859,155.413C767.575,163.713 764,170.059 758.794,174.45C752.447,179.988 743.491,183.728 731.938,185.847C721.038,187.956 704.928,188.938 683.609,189.1L683.609,189.1Z" style="fill:white;"/>
    <path d="M249.597,275.291C239.6,275.291 233.913,282.847 233.913,296.256C233.913,309.741 239.925,317.3 250,317.3C259.916,317.3 265.684,309.822 265.684,296.256C265.684,282.847 259.672,275.291 249.597,275.291L249.597,275.291ZM249.597,326.969C232.125,326.969 220.506,315.838 220.506,296.256C220.506,276.672 232.534,265.459 250,265.459C267.472,265.459 279.091,276.591 279.091,296.256C279.091,316.078 267.147,326.969 249.597,326.969Z" style="fill:white;fill-rule:nonzero;"/>
    <path d="M298.103,326.319L286.806,326.319L286.806,290.406C286.806,286.506 288.756,284.472 292.497,283.416C298.672,281.709 303.056,281.303 306.956,281.303C319.959,281.303 325.078,287.966 325.078,297.313L325.078,326.319L313.947,326.319L313.947,298.288C313.947,294.141 312.159,290.891 306.388,290.891C304.437,290.891 302.406,291.056 298.103,292.191L298.103,326.319Z" style="fill:white;fill-rule:nonzero;"/>
    <path d="M334.013,326.319L334.013,265.541L345.469,263.428L345.469,326.319L334.013,326.319Z" style="fill:white;fill-rule:nonzero;"/>
    <path d="M354.731,326.319L354.731,281.709L365.781,281.709L365.781,326.319L354.731,326.319ZM360.256,275.941C356.194,275.941 353.838,273.584 353.838,269.847C353.838,266.191 356.194,263.834 360.256,263.834C364.319,263.834 366.675,266.191 366.675,269.847C366.675,273.584 364.319,275.941 360.256,275.941Z" style="fill:white;fill-rule:nonzero;"/>
    <path d="M386.256,326.319L374.963,326.319L374.963,290.406C374.963,286.506 376.912,284.472 380.65,283.416C386.825,281.709 391.213,281.303 395.113,281.303C408.113,281.303 413.231,287.966 413.231,297.313L413.231,326.319L402.1,326.319L402.1,298.288C402.1,294.141 400.313,290.891 394.544,290.891C392.594,290.891 390.563,291.056 386.256,292.191L386.256,326.319Z" style="fill:white;fill-rule:nonzero;"/>
    <path d="M441.506,289.266C435.656,289.266 432.081,293.413 431.675,300.072L451.338,300.072C451.338,294.141 448.413,289.266 441.506,289.266ZM441.831,281.141C454.181,281.141 462.228,288.128 462.228,302.997C462.228,306.169 460.763,307.713 457.513,307.713L431.756,307.713C432.325,314.619 437.038,317.784 443.781,317.784C447.438,317.784 451.094,317.219 455.888,315.756L460.194,314.375L461.656,322.825L457.35,324.206C451.744,325.994 447.681,326.806 442.969,326.806C429.644,326.806 420.788,319.25 420.788,304.138C420.788,288.209 430.538,281.141 441.831,281.141L441.831,281.141Z" style="fill:white;fill-rule:nonzero;"/>
    <path d="M474.575,327.131C470.513,327.131 468.075,324.694 468.075,320.794C468.075,316.975 470.513,314.538 474.575,314.538C478.556,314.538 480.994,316.975 480.994,320.794C480.994,324.694 478.556,327.131 474.575,327.131Z" style="fill:white;fill-rule:nonzero;"/>
    <path d="M573.05,326.319L561.188,326.319L561.188,282.278L548.103,321.928C547.209,325.181 544.934,326.725 541.034,326.725C537.134,326.725 534.778,325.1 533.722,321.928L520.884,282.197L520.884,326.319L509.428,326.319L509.428,273.747C509.428,268.141 513.409,265.378 519.341,265.378C526.084,265.378 528.928,268.709 530.391,273.259L541.278,307.956L552.656,273.259C554.119,268.709 556.634,265.378 563.381,265.378C569.313,265.378 573.05,268.141 573.05,273.747L573.05,326.319Z" style="fill:white;fill-rule:nonzero;"/>
    <path d="M609.447,307.628L599.944,307.628C594.822,307.628 591.734,309.256 591.734,313.478C591.734,317.056 594.256,318.763 598.478,318.763C600.347,318.763 603.109,318.434 606.031,317.625L609.447,316.728L609.447,307.628L609.447,307.628ZM620.825,327.375L616.922,325.181C614.891,324.041 612.778,323.963 610.422,324.531L607.744,325.181C604.087,326.075 599.534,326.806 596.366,326.806C586.616,326.806 580.766,322.013 580.766,313.884C580.766,302.269 590.678,299.991 601.891,299.991L609.366,299.991L609.366,296.988C609.366,292.028 606.2,290.322 601.487,290.322C597.909,290.322 593.034,291.216 588.244,292.678L583.772,294.063L582.309,285.284L586.453,283.984C592.144,282.197 597.506,281.222 602.622,281.222C612.619,281.222 620.013,285.366 620.013,296.578L620.013,317.056L624.969,320.063L620.825,327.375L620.825,327.375Z" style="fill:white;fill-rule:nonzero;"/>
    <path d="M656.084,290.647C650.481,290.647 646.009,291.056 641.866,292.191L641.866,326.319L630.816,326.319L630.816,290.566C630.816,286.584 632.766,284.556 636.503,283.497C642.353,281.872 647.391,281.384 656.084,281.384L656.084,290.647Z" style="fill:white;fill-rule:nonzero;"/>
    <path d="M689.966,326.319L680.459,306.006L676.884,309.906C674.447,312.584 672.497,314.697 672.575,319.494L672.575,326.319L661.528,326.319L661.528,265.459L672.575,263.428L672.575,300.806L688.828,281.709L702.319,281.709L689.153,296.822L702.722,326.319L689.966,326.319Z" style="fill:white;fill-rule:nonzero;"/>
    <path d="M725.719,289.266C719.866,289.266 716.291,293.413 715.884,300.072L735.547,300.072C735.547,294.141 732.622,289.266 725.719,289.266ZM726.041,281.141C738.394,281.141 746.438,288.128 746.438,302.997C746.438,306.169 744.975,307.713 741.722,307.713L715.966,307.713C716.534,314.619 721.247,317.784 727.991,317.784C731.647,317.784 735.303,317.219 740.097,315.756L744.403,314.375L745.866,322.825L741.559,324.206C735.953,325.994 731.891,326.806 727.178,326.806C713.853,326.806 704.997,319.25 704.997,304.138C704.997,288.209 714.747,281.141 726.041,281.141Z" style="fill:white;fill-rule:nonzero;"/>
    <path d="M782.269,325.1C777.959,326.234 774.625,326.806 771.378,326.806C761.141,326.806 756.347,321.2 756.347,310.313L756.347,290.728L750.091,290.728L750.091,282.116L756.347,282.116L756.347,272.609L767.313,270.578L767.313,282.116L780.884,282.116L780.884,290.728L767.313,290.728L767.313,311.122C767.313,315.106 768.778,317.95 773.325,317.95C775.441,317.95 778.041,317.378 780.884,316.65L782.269,325.1Z" style="fill:white;fill-rule:nonzero;"/>
    <path d="M788.844,326.319L788.844,281.709L799.894,281.709L799.894,326.319L788.844,326.319ZM794.372,275.941C790.306,275.941 787.95,273.584 787.95,269.847C787.95,266.191 790.306,263.834 794.372,263.834C798.431,263.834 800.787,266.191 800.787,269.847C800.787,273.584 798.431,275.941 794.372,275.941Z" style="fill:white;fill-rule:nonzero;"/>
    <path d="M820.372,326.319L809.075,326.319L809.075,290.406C809.075,286.506 811.028,284.472 814.763,283.416C820.941,281.709 825.328,281.303 829.228,281.303C842.228,281.303 847.347,287.966 847.347,297.313L847.347,326.319L836.216,326.319L836.216,298.288C836.216,294.141 834.428,290.891 828.656,290.891C826.706,290.891 824.675,291.056 820.372,292.191L820.372,326.319Z" style="fill:white;fill-rule:nonzero;"/>
    <path d="M874.728,289.509C869.122,289.509 865.381,291.378 865.381,296.172C865.381,301.213 869.122,302.997 874.728,302.997C880.172,302.997 884.153,301.047 884.153,296.172C884.153,291.378 880.416,289.509 874.728,289.509ZM882.853,323.394L866.925,323.394C865.953,324.45 865.222,326.156 865.222,328.106C865.222,332.084 869.444,333.469 876.109,333.469C884.637,333.469 888.784,331.356 888.784,327.294C888.784,324.934 886.997,323.394 882.853,323.394L882.853,323.394ZM858.316,319.9L862.053,315.184C863.109,313.806 863.516,312.669 863.516,311.45C863.516,309.663 862.866,308.522 860.916,307.141C858.397,305.272 854.9,302.269 854.9,296.172C854.9,286.422 862.7,281.956 874.481,281.956L878.953,281.956C882.772,281.956 885.372,281.547 887.078,281.059L897.556,278.053L899.591,286.259L891.544,288.534C891.544,288.534 894.716,290.891 894.716,296.172C894.716,305.438 887.322,309.822 875.378,309.822C872.938,309.822 871.556,309.497 871.556,309.497C871.881,309.906 872.209,310.878 872.209,312.019C872.209,313.397 871.722,314.619 870.825,315.675L883.584,315.675C893.9,315.675 898.697,320.063 898.697,326.884C898.697,335.741 891.222,340.863 875.7,340.863C864.244,340.863 855.225,337.45 855.225,328.35C855.225,324.613 856.769,321.85 858.316,319.9L858.316,319.9Z" style="fill:white;fill-rule:nonzero;"/>
    <path d="M910.475,327.131C906.413,327.131 903.975,324.694 903.975,320.794C903.975,316.975 906.413,314.538 910.475,314.538C914.456,314.538 916.897,316.975 916.897,320.794C916.897,324.694 914.456,327.131 910.475,327.131Z" style="fill:white;fill-rule:nonzero;"/>
    <path d="M967.513,275.616L958.328,275.616L958.328,294.791L969.3,294.791C975.069,294.791 978.725,291.297 978.725,285.206C978.725,277.809 974.013,275.616 967.513,275.616L967.513,275.616ZM970.356,304.622L958.328,304.622L958.328,326.319L945.328,326.319L945.328,273.016C945.328,268.628 948.172,265.866 952.969,265.866L971.169,265.866C982.95,265.866 990.75,273.259 990.75,285.206C990.75,297.313 982.706,304.622 970.356,304.622Z" style="fill:white;fill-rule:nonzero;"/>
    <path d="M1015.69,289.266C1009.84,289.266 1006.26,293.413 1005.86,300.072L1025.52,300.072C1025.52,294.141 1022.6,289.266 1015.69,289.266L1015.69,289.266ZM1016.02,281.141C1028.37,281.141 1036.42,288.128 1036.42,302.997C1036.42,306.169 1034.95,307.713 1031.7,307.713L1005.95,307.713C1006.51,314.619 1011.23,317.784 1017.97,317.784C1021.63,317.784 1025.28,317.219 1030.08,315.756L1034.38,314.375L1035.85,322.825L1031.54,324.206C1025.93,325.994 1021.87,326.806 1017.16,326.806C1003.83,326.806 994.976,319.25 994.976,304.138C994.976,288.209 1004.73,281.141 1016.02,281.141Z" style="fill:white;fill-rule:nonzero;"/>
    <path d="M1068.75,290.647C1063.14,290.647 1058.67,291.056 1054.53,292.191L1054.53,326.319L1043.48,326.319L1043.48,290.566C1043.48,286.584 1045.43,284.556 1049.17,283.497C1055.02,281.872 1060.06,281.384 1068.75,281.384L1068.75,290.647Z" style="fill:white;fill-rule:nonzero;"/>
    <path d="M1102.06,274.397C1098.89,273.584 1096.37,273.097 1094.34,273.097C1089.95,273.097 1088.33,274.884 1088.33,279.678L1088.33,282.116L1101.25,282.116L1101.25,290.728L1088.33,290.728L1088.33,326.319L1077.36,326.319L1077.36,290.728L1070.94,290.728L1070.94,282.116L1077.36,282.116L1077.36,278.784C1077.36,268.953 1083.05,264.159 1092.55,264.159C1095.72,264.159 1099.13,264.809 1103.44,265.947L1102.06,274.397L1102.06,274.397Z" style="fill:white;fill-rule:nonzero;"/>
    <path d="M1126.36,289.591C1119.45,289.591 1116.04,294.791 1116.04,304.056C1116.04,313.563 1119.78,318.519 1126.6,318.519C1133.43,318.519 1137,313.478 1137,304.056C1137,294.713 1133.18,289.591 1126.36,289.591ZM1126.36,326.806C1112.87,326.806 1104.67,318.519 1104.67,304.056C1104.67,289.428 1113.28,281.222 1126.6,281.222C1140.01,281.222 1148.3,289.428 1148.3,304.056C1148.3,318.6 1139.68,326.806 1126.36,326.806L1126.36,326.806Z" style="fill:white;fill-rule:nonzero;"/>
    <path d="M1181.03,290.647C1175.42,290.647 1170.95,291.056 1166.81,292.191L1166.81,326.319L1155.76,326.319L1155.76,290.566C1155.76,286.584 1157.71,284.556 1161.45,283.497C1167.3,281.872 1172.34,281.384 1181.03,281.384L1181.03,290.647Z" style="fill:white;fill-rule:nonzero;"/>
    <path d="M1197.61,326.319L1186.48,326.319L1186.48,290.406C1186.48,286.506 1188.43,284.556 1192.17,283.416C1197.13,281.872 1201.43,281.303 1205.57,281.303C1210.85,281.303 1214.75,282.441 1217.35,284.634C1221.34,282.847 1226.3,281.303 1231.5,281.303C1243.27,281.303 1247.99,287.559 1247.99,296.906L1247.99,326.319L1236.94,326.319L1236.94,297.878C1236.94,293.897 1235.15,290.891 1230.27,290.891C1226.7,290.891 1224.26,291.866 1222.07,292.678C1222.47,293.738 1222.88,295.278 1222.88,297.313L1222.88,326.319L1211.83,326.319L1211.83,297.878C1211.83,293.738 1210.2,290.891 1205.09,290.891C1203.22,290.891 1201.18,291.056 1197.61,292.191L1197.61,326.319Z" style="fill:white;fill-rule:nonzero;"/>
    <path d="M1284.23,309.878L1274.72,309.878C1269.6,309.878 1266.51,311.506 1266.51,315.728C1266.51,319.306 1269.03,321.013 1273.26,321.013C1275.13,321.013 1277.89,320.684 1280.81,319.875L1284.23,318.978L1284.23,309.878L1284.23,309.878ZM1295.6,329.625L1291.7,327.431C1289.67,326.291 1287.56,326.213 1285.2,326.781L1282.52,327.431C1278.86,328.325 1274.31,329.056 1271.14,329.056C1261.39,329.056 1255.54,324.263 1255.54,316.134C1255.54,304.519 1265.46,302.241 1276.67,302.241L1284.14,302.241L1284.14,299.238C1284.14,294.278 1280.98,292.572 1276.26,292.572C1272.69,292.572 1267.81,293.466 1263.02,294.928L1258.55,296.313L1257.09,287.534L1261.23,286.234C1266.92,284.447 1272.28,283.472 1277.4,283.472C1287.39,283.472 1294.79,287.616 1294.79,298.828L1294.79,319.306L1299.74,322.313L1295.6,329.625Z" style="fill:white;fill-rule:nonzero;"/>
    <path d="M1316.88,326.319L1305.59,326.319L1305.59,290.406C1305.59,286.506 1307.54,284.472 1311.27,283.416C1317.45,281.709 1321.84,281.303 1325.74,281.303C1338.74,281.303 1343.86,287.966 1343.86,297.313L1343.86,326.319L1332.72,326.319L1332.72,298.288C1332.72,294.141 1330.94,290.891 1325.17,290.891C1323.22,290.891 1321.19,291.056 1316.88,292.191L1316.88,326.319Z" style="fill:white;fill-rule:nonzero;"/>
    <path d="M1373.6,317.463C1376.36,317.463 1379.94,316.569 1383.84,315.428L1387.41,314.375L1388.88,323.556L1385.14,324.694C1380.51,326.075 1376.28,326.884 1372.38,326.884C1359.95,326.884 1351.42,319.494 1351.42,304.056C1351.42,289.106 1359.95,281.222 1372.38,281.222C1376.28,281.222 1380.51,282.034 1385.14,283.416L1388.88,284.556L1387.41,293.738L1383.84,292.678C1379.94,291.541 1376.36,290.647 1373.6,290.647C1366.53,290.647 1362.88,294.956 1362.88,304.056C1362.88,313.075 1366.53,317.463 1373.6,317.463L1373.6,317.463Z" style="fill:white;fill-rule:nonzero;"/>
    <path d="M1414.87,289.266C1409.02,289.266 1405.45,293.413 1405.05,300.072L1424.71,300.072C1424.71,294.141 1421.78,289.266 1414.87,289.266ZM1415.2,281.141C1427.55,281.141 1435.59,288.128 1435.59,302.997C1435.59,306.169 1434.13,307.713 1430.88,307.713L1405.12,307.713C1405.69,314.619 1410.41,317.784 1417.15,317.784C1420.81,317.784 1424.46,317.219 1429.26,315.756L1433.56,314.375L1435.02,322.825L1430.72,324.206C1425.11,325.994 1421.05,326.806 1416.33,326.806C1403.01,326.806 1394.15,319.25 1394.15,304.138C1394.15,288.209 1403.9,281.141 1415.2,281.141L1415.2,281.141Z" style="fill:white;fill-rule:nonzero;"/>
    <path d="M1447.93,327.131C1443.87,327.131 1441.43,324.694 1441.43,320.794C1441.43,316.975 1443.87,314.538 1447.93,314.538C1451.91,314.538 1454.35,316.975 1454.35,320.794C1454.35,324.694 1451.91,327.131 1447.93,327.131Z" style="fill:white;fill-rule:nonzero;"/>
</svg>
