<?xml version="1.0" standalone="no"?><!DOCTYPE svg PUBLIC "-//W3C//DTD SVG 1.1//EN" "http://www.w3.org/Graphics/SVG/1.1/DTD/svg11.dtd"><svg width="100%" height="100%" viewBox="0 0 1181 378" version="1.1" xmlns="http://www.w3.org/2000/svg" xmlns:xlink="http://www.w3.org/1999/xlink" xml:space="preserve" style="fill-rule:evenodd;clip-rule:evenodd;stroke-linejoin:round;stroke-miterlimit:1.41421;"><g><path d="M66.3,32.4c-13,3.2 -26.1,13.4 -31.6,24.9c-5.8,12 -5.7,8.8 -5.3,135.2c0.3,86.1 0.7,117 1.6,120c2.2,7.3 6.2,13.9 12.1,20.1c6.5,6.7 12.3,10.3 21.4,13.1c5.7,1.7 12.3,1.8 123,1.8l117,0l7,-2.2c12.5,-4 22.4,-12.1 28.4,-23.2c6.4,-12.1 6.2,-7.2 5.9,-135.9l-0.3,-116.7l-2.3,-5.9c-4.4,-11.7 -11.1,-19.7 -21.5,-26c-11.5,-6.8 -6.8,-6.6 -134.9,-6.5c-88.6,0.1 -116.5,0.4 -120.5,1.3ZM170.2,90.4c7.8,1.5 14.3,3.5 22.1,6.8l4.7,2l0,24l0,24l-3.7,-3.3c-9.8,-8.5 -23.5,-14.9 -32.2,-14.9c-11.9,0 -22.1,8.1 -22.1,17.7c0,10.1 4.3,14.4 24.3,24.5c16.9,8.4 24,13.1 31.7,20.8c9.4,9.4 14,21.8 14,38c0,18.2 -6.4,33.4 -19.3,46.3c-9.2,9.2 -16.1,13.6 -26.9,17.4c-9.9,3.5 -27.6,4.3 -39.9,1.9c-8.2,-1.7 -26.8,-8.4 -30.2,-10.9c-1.6,-1.1 -1.7,-3.6 -1.5,-25.4l0.3,-24.2l7,5.5c13.7,10.7 29.8,16.6 40.7,15c10.9,-1.6 20.2,-10.9 21.5,-21.4c0.5,-4.3 0.1,-6 -2.1,-10.6c-3.3,-6.7 -6.8,-9.6 -21.1,-17.4c-30.6,-16.8 -42.1,-28.6 -45.4,-46.6c-3.6,-19.4 2.3,-38.8 15.7,-52.4c9.1,-9.2 22.4,-15.9 34.7,-17.5c7.1,-0.9 20.9,-0.6 27.7,0.7ZM267.5,91.3c17.9,9.3 17.9,35 0,43.7c-3.8,1.8 -5.9,2.1 -12.4,1.9c-7,-0.4 -8.4,-0.8 -12.3,-3.5c-8.6,-6.3 -12.6,-17.2 -9.8,-27.3c1.5,-5.5 9,-13.6 14.5,-15.7c4.9,-1.8 15.8,-1.3 20,0.9ZM256.3,164.4c9.5,-0.1 16.5,-2.1 20.9,-6.1c1.7,-1.5 1.8,1.2 1.8,67l0,68.7l-23,0l-23,0l0,-136.6l7,3.5c6.6,3.2 7.8,3.5 16.3,3.5Z" style="fill:#fff;fill-rule:nonzero;"/><path d="M418.8,90.3c-14.3,4.1 -22.8,17.9 -19.8,32.4c1.1,4.9 2,6.5 6.9,11.3c3.1,3 8.5,7.1 12.1,8.9c11.5,5.9 14.8,10.8 11.5,17c-2.5,4.9 -5.6,6.4 -12.4,5.9c-4.9,-0.3 -7,-1.1 -11.8,-4.4c-3.2,-2.1 -6.1,-4.1 -6.5,-4.2c-0.5,-0.2 -0.8,4.8 -0.8,11.1l0,11.5l4.8,2c7.7,3.3 13.9,4.5 21.1,4c17,-1.2 29.5,-14.5 29.4,-31.3c0,-4 -0.7,-8.5 -1.5,-10.6c-2.3,-5.4 -9,-11.2 -18.5,-16c-11.6,-5.9 -14.6,-10.2 -10.8,-15.6c3.7,-5.3 12.5,-5 20.3,0.7c2.3,1.6 4.4,3 4.7,3c0.3,0 0.4,-5 0.3,-11.2l-0.3,-11.2l-5.5,-1.9c-7,-2.5 -17.2,-3.1 -23.2,-1.4Z" style="fill:#fff;fill-rule:nonzero;"/><path d="M623,138l0,47.1l10.8,-0.3l10.7,-0.3l0.3,-46.8l0.2,-46.7l-11,0l-11,0l0,47Z" style="fill:#fff;fill-rule:nonzero;"/><rect x="658" y="91" width="22" height="94" style="fill:#fff;fill-rule:nonzero;"/><path d="M491.2,120.7c-1.8,0.9 -4.1,2.7 -5.2,4l-1.8,2.4l-1.2,-3.6l-1.2,-3.5l-8.9,0l-8.9,0l0,32.5l0,32.5l21,0l0,-19.9c0,-21.7 0.7,-25.7 4.7,-26.7c4.5,-1.2 4.8,0.2 5.1,24.1l0.3,22.5l20.9,0l0,-19.3c0,-21.8 0.8,-26.4 4.7,-27.3c4.9,-1.3 5.3,0.7 5.3,24.8l0,21.8l22,0l0,-23.8c0,-27 -0.8,-31.7 -6.2,-36.9c-7.6,-7.3 -18,-7.1 -25.2,0.6c-1.7,1.7 -3.2,3.1 -3.6,3.1c-0.3,0 -1.3,-1.3 -2.3,-2.9c-3.3,-5.6 -12.7,-7.8 -19.5,-4.4Z" style="fill:#fff;fill-rule:nonzero;"/><path d="M573.2,120.5c-9.3,2.6 -9.2,2.4 -9.2,12.1l0,8.6l3.6,-2.2c4.5,-2.9 9.9,-4.1 14.6,-3.3c3.5,0.5 7.8,3.4 7.8,5.3c0,0.5 -2.6,1.4 -5.7,2c-14.8,3.1 -24,9.2 -26.3,17.5c-2.3,8.1 1.2,17.3 8.3,22.2c3.4,2.3 5.1,2.8 10.3,2.8c5.5,0 6.7,-0.4 10.2,-3.2l4,-3.2l0.6,2.9l0.6,3l11.1,0c10.2,0 11.1,-0.1 10.4,-1.8c-2.3,-5.2 -3.5,-15.1 -3.5,-29.7c0,-17.2 -1.1,-21.8 -6.3,-27.3c-5.9,-6.3 -19.3,-8.8 -30.5,-5.7ZM590,159.3c0,7.4 -1.8,10.7 -5.8,10.7c-3.3,0 -4.5,-0.8 -6.1,-3.8c-2.5,-4.7 0.6,-10.4 6.5,-12.2c5.3,-1.5 5.4,-1.4 5.4,5.3Z" style="fill:#fff;fill-rule:nonzero;"/><rect x="401" y="201" width="22" height="94" style="fill:#fff;fill-rule:nonzero;"/><path d="M1065.6,215.6c-0.3,2.6 -0.6,6.3 -0.6,8.3c0,4.9 -0.9,5.9 -5.5,6.3l-4,0.3l-0.3,7.7l-0.3,7.8l7.9,0l0.4,19.2c0.3,17.1 0.5,19.7 2.3,22.7c3.7,6.3 6.5,7.6 16.8,7.6c13,0 12.7,0.2 12.7,-9.9l0,-8.5l-3.6,0.6c-5.8,1 -6.4,-0.7 -6.4,-17.4l0,-14.3l10.1,0l-0.3,-7.8l-0.3,-7.7l-5.2,-0.3l-5.3,-0.3l0,-18.9l-8.9,0l-8.8,0l-0.7,4.6Z" style="fill:#fff;fill-rule:nonzero;"/><path d="M465.2,230.5c-1.7,0.8 -4.3,2.5 -5.5,3.9l-2.3,2.5l-1.3,-3.5l-1.2,-3.4l-9,0l-8.9,0l0,32.5l0,32.5l20.9,0l0.3,-21.4c0.3,-19.4 0.5,-21.6 2.2,-23.5c2.4,-2.6 5.2,-2.7 6.6,-0.2c0.6,1.2 1,10.6 1,23.6l0,21.6l10.8,-0.3l10.7,-0.3l0.3,-21.4c0.2,-18.2 0.5,-21.8 1.9,-23.3c0.9,-1 2.4,-1.8 3.3,-1.8c3.7,0 4,1.8 4,24.7l0,22.3l22,0l0,-24.4c0,-19.4 -0.3,-25.2 -1.5,-28.7c-4.9,-13.8 -20.8,-17.3 -30.1,-6.7l-3,3.5l-2.1,-3.2c-3.9,-5.9 -12.1,-8 -19.1,-5Z" style="fill:#fff;fill-rule:nonzero;"/><path d="M562.5,230.4c-1.6,0.7 -4.1,2.6 -5.5,4l-2.5,2.7l-1.1,-3.3l-1.1,-3.3l-9.1,-0.3l-9.2,-0.3l0,47.6l0,47.5l21,0l0,-16.5c0,-9.1 0.1,-16.5 0.3,-16.5c0.1,0 2,0.9 4.2,2c15.7,8 31.5,-8.3 31.5,-32.6c0,-8.8 -2.8,-18.5 -7.1,-24.3c-5,-7 -14.2,-9.9 -21.4,-6.7ZM565.5,249.4c5.8,5.8 3.9,26.2 -2.6,27.9c-2.3,0.6 -5.8,-0.7 -7.1,-2.7c-1.1,-1.6 -0.9,-16.3 0.2,-21.1c1.5,-6.5 5.4,-8.2 9.5,-4.1Z" style="fill:#fff;fill-rule:nonzero;"/><path d="M627.1,231.5c-1.6,1.4 -3.3,3.6 -3.7,4.8c-0.7,1.9 -0.9,1.7 -1.9,-1.8l-1.2,-4l-9.4,0l-9.4,0l0,32l0,32l22,0l0.3,-19.3c0.3,-21.2 0.7,-22.9 6.2,-25.2c2.2,-0.9 3.8,-0.9 6,-0.2l3,1.1l0,-10.3c0,-8.6 -0.3,-10.5 -1.6,-11c-3.3,-1.3 -7.4,-0.5 -10.3,1.9Z" style="fill:#fff;fill-rule:nonzero;"/><path d="M664,230.5c-20.7,6.6 -26.9,41.3 -10.4,57.8c5.9,5.9 9.6,7.2 20.4,7.2c10.9,0 14.8,-1.5 21.2,-8.2c6.6,-6.8 8.3,-12.1 8.3,-25.3c0,-9.6 -0.3,-12.2 -2.1,-16c-2.8,-5.9 -8.7,-11.8 -14.3,-14.3c-5.9,-2.6 -17,-3.2 -23.1,-1.2ZM679.4,249.3c1.8,2.5 2.1,4.2 2.1,13.2c0,9 -0.3,10.7 -2.1,13.2c-3,4 -7.7,4.3 -10,0.8c-3.8,-5.9 -4,-21.4 -0.3,-27.5c1.6,-2.6 2.5,-3.1 5.1,-2.8c2,0.2 3.8,1.3 5.2,3.1Z" style="fill:#fff;fill-rule:nonzero;"/><path d="M786.1,230.1c-11.7,3.6 -19.7,15 -20.8,29.6c-1.1,14.4 4.7,26.5 15.6,32.6c4.3,2.5 6.9,3.1 13.1,3.5c7.9,0.4 11.1,-0.2 20.3,-4l4.7,-2l0,-9.9c0,-5.5 -0.2,-9.9 -0.5,-9.9c-0.3,0 -2.8,1.6 -5.6,3.7c-8.8,6.3 -18.4,5.5 -22.9,-2c-3.5,-5.7 -3.6,-5.7 15,-5.7l17,0l0,-5.9c0,-7.2 -2.9,-17 -6.4,-21.6c-4.4,-5.7 -10.7,-8.8 -19,-9.1c-3.9,-0.2 -8.6,0.1 -10.5,0.7ZM801,245.2c1.1,1.8 2,4.5 2,6l0,2.8l-8,0l-8,0l0,-3.4c0,-5.1 3.3,-8.6 8.1,-8.6c3.4,0 4.2,0.5 5.9,3.2Z" style="fill:#fff;fill-rule:nonzero;"/><path d="M861.5,230.4c-1.6,0.7 -4.1,2.6 -5.5,4l-2.5,2.7l-1.1,-3.3l-1.1,-3.3l-9.1,-0.3l-9.2,-0.3l0,32.6l0,32.5l20.8,0l0.4,-20.8c0.3,-17.9 0.6,-21.2 2.1,-23.5c2,-3.2 5.2,-3.5 6.7,-0.8c0.6,1.2 1,10.6 1,23.6l0,21.6l10.8,-0.3l10.7,-0.3l0.5,-21.6c0.5,-22.5 1,-24.9 5,-24.9c3.6,0 4,2.2 4.2,24.6l0.3,21.9l10.8,0.3l10.7,0.3l0,-50.7l-2.7,-5.5c-6,-11.7 -21,-13.5 -29,-3.4l-2.6,3.3l-2.1,-3.2c-4,-5.9 -12.4,-8.2 -19.1,-5.2Z" style="fill:#fff;fill-rule:nonzero;"/><path d="M948.1,230.1c-5,1.5 -11.3,6.2 -14.4,10.6c-5,7.3 -6.1,11.1 -6.2,21.8c0,8.7 0.3,10.7 2.6,15.5c5.5,11.7 13.3,17.1 26,17.8c7.8,0.4 11.1,-0.2 20.2,-4l4.7,-2l0,-9.9c0,-5.5 -0.2,-9.9 -0.5,-9.9c-0.3,0 -2.8,1.6 -5.6,3.7c-8.8,6.3 -18.4,5.5 -22.9,-2c-3.5,-5.6 -3.5,-5.6 14.8,-5.9l16.7,-0.3l0.3,-4.8c0.4,-6.3 -2.2,-16.3 -5.6,-21.2c-4.5,-6.4 -10.9,-9.7 -19.5,-10.1c-3.9,-0.2 -8.7,0.1 -10.6,0.7ZM963,245.2c1.1,1.8 2,4.5 2,6l0,2.8l-8,0l-8,0l0,-3.4c0,-5.1 3.3,-8.6 8.1,-8.6c3.4,0 4.2,0.5 5.9,3.2Z" style="fill:#fff;fill-rule:nonzero;"/><path d="M1022.5,230.7c-1.6,0.8 -4,2.4 -5.1,3.5c-2.2,1.9 -2.2,1.9 -3.2,-1.1l-1.1,-3.1l-9,0l-9.1,0l0,32.5l0,32.5l20.9,0l0.3,-21.4c0.3,-19.4 0.5,-21.6 2.2,-23.5c2.3,-2.5 6.1,-2.8 7,-0.5c0.3,0.9 0.6,11.4 0.6,23.5l0,21.9l22,0l0,-24.3c0,-25.1 -0.6,-29.9 -4.3,-35.1c-4.1,-5.8 -14.8,-8.3 -21.2,-4.9Z" style="fill:#fff;fill-rule:nonzero;"/><path d="M1119,230.5c-12.5,3.9 -18.2,15.3 -12.9,26.1c2.1,4.5 5.9,7.4 14.2,11c5.2,2.2 8.7,4.8 8.7,6.4c0,0.5 -1,2 -2.1,3.1c-3.2,3.2 -10.3,2.2 -17.4,-2.5l-5.5,-3.6l0,9.9l0,10l5.8,2.3c8.5,3.4 22.8,3.3 29.6,-0.2c6,-3.1 10.1,-8 11.7,-14.2c2.5,-9.2 -2.5,-17.5 -13.3,-22.2c-8.4,-3.6 -9,-4 -10.2,-6c-0.9,-1.3 -0.7,-2 0.9,-3.2c2.8,-2.2 9.6,-1.2 14.5,2c2.2,1.4 4.2,2.6 4.5,2.6c0.3,0 0.5,-4.2 0.5,-9.4c0,-9.3 0,-9.4 -2.7,-10.4c-8.9,-3.5 -18.6,-4.1 -26.3,-1.7Z" style="fill:#fff;fill-rule:nonzero;"/><path d="M706.5,232.7c0.3,1.6 4.3,16.1 8.8,32.3l8.3,29.5l10.6,0.3l10.6,0.3l1.1,-3.3c2.8,-8.9 17.1,-59.3 17.1,-60.5c0,-1.1 -2.2,-1.3 -10.7,-1.1l-10.8,0.3l-2.7,16c-1.5,8.8 -3,17.6 -3.4,19.5c-0.6,2.8 -1.3,-0.4 -3.5,-14.8c-1.5,-10.1 -3,-19 -3.3,-19.8c-0.4,-1.1 -3,-1.4 -11.6,-1.4l-11.2,0l0.7,2.7Z" style="fill:#fff;fill-rule:nonzero;"/></g></svg>