<?xml version="1.0" standalone="no"?>
<!DOCTYPE svg PUBLIC "-//W3C//DTD SVG 1.1//EN" "http://www.w3.org/Graphics/SVG/1.1/DTD/svg11.dtd">
<svg width="100%" height="100%" viewBox="0 0 1751 403" version="1.1" xmlns="http://www.w3.org/2000/svg" xmlns:xlink="http://www.w3.org/1999/xlink" xml:space="preserve" style="fill-rule:evenodd;clip-rule:evenodd;stroke-miterlimit:10;">
    <g id="Layer 1">
        <g>
            <clipPath id="_clip1">
                <rect x="0" y="0" width="1750.77" height="402.367"/>
            </clipPath>
            <g clip-path="url(#_clip1)">
                <path d="M552.62,0.5L552.62,398.19L602.246,398.19L602.246,257.248L603.309,257.248L676.974,398.19L728.961,398.19L653.52,253.574L720.198,134.208L668.921,134.208L603.309,247.174L602.246,247.174L602.246,0.5L552.62,0.5ZM125.441,0.5L125.441,398.19L175.538,398.19L175.538,210.664L175.654,208.18L175.654,205.569L175.892,203.199L176.131,200.824L176.369,198.576L176.724,196.44L177.077,194.309L177.553,192.294L178.025,190.395L178.616,188.497L179.331,186.719L180.039,185.059L180.749,183.519L181.578,181.98L182.409,180.557L183.356,179.136L184.419,177.949L185.488,176.644L186.551,175.576L187.857,174.512L189.042,173.561L190.342,172.737L191.765,172.021L193.183,171.308L194.723,170.716L196.263,170.123L197.922,169.652L199.578,169.292L201.239,169.059L203.133,168.822L205.027,168.701L208.818,168.701L210.597,168.822L212.368,168.939L214.029,169.292L215.686,169.53L217.224,170.007L218.763,170.483L220.186,171.075L221.61,171.667L222.91,172.376L224.212,173.089L225.518,174.037L226.581,174.866L227.766,175.936L228.834,176.999L229.781,178.183L230.728,179.373L231.558,180.675L232.383,181.98L233.097,183.519L233.806,184.942L234.398,186.603L234.991,188.262L235.462,189.919L235.938,191.818L236.292,193.716L236.645,195.609L236.884,197.623L237.123,199.76L237.238,201.893L237.361,204.151L237.361,398.19L286.034,398.19L286.034,190.987L285.917,187.311L285.797,183.637L285.558,180.199L285.086,176.765L284.611,173.561L284.02,170.361L283.309,167.4L282.48,164.438L281.533,161.71L280.469,158.985L279.402,156.493L278.098,154.003L276.677,151.75L275.259,149.501L273.715,147.487L271.943,145.468L270.165,143.69L268.271,141.913L266.257,140.373L264.125,138.829L261.871,137.528L259.507,136.222L257.016,135.159L254.414,134.091L251.69,133.26L248.966,132.429L246.004,131.836L243.042,131.246L239.846,130.89L236.645,130.531L233.331,130.298L229.898,130.298L226.343,130.415L222.793,130.653L219.24,131.246L215.686,131.958L212.253,132.784L208.818,133.973L205.38,135.274L201.948,136.815L198.63,138.474L195.199,140.49L191.883,142.626L188.566,144.875L185.25,147.487L182.053,150.21L178.854,153.172L175.538,156.255L175.538,0.5L125.441,0.5ZM333.051,26.459L331.628,26.459L330.327,26.58L329.026,26.813L327.719,26.934L326.418,27.288L325.117,27.644L323.932,27.997L322.748,28.474L321.563,29.066L320.377,29.657L319.193,30.372L318.129,31.081L317.062,31.794L315.998,32.742L314.93,33.688L313.867,34.64L312.92,35.587L311.968,36.655L311.142,37.719L310.429,38.787L309.719,39.971L309.011,41.04L308.418,42.224L307.943,43.409L307.473,44.593L307.117,45.901L306.759,47.084L306.403,48.385L306.286,49.575L306.049,50.877L306.049,52.299L305.933,53.606L306.049,55.027L306.049,56.329L306.286,57.637L306.403,58.937L306.759,60.243L307.117,61.544L307.473,62.73L307.943,63.913L308.418,65.221L309.011,66.287L309.719,67.474L310.429,68.541L311.142,69.724L311.968,70.673L312.799,71.74L313.746,72.804L314.813,73.756L315.761,74.586L316.824,75.534L317.892,76.241L319.076,76.956L320.14,77.665L321.324,78.263L322.51,78.733L323.694,79.209L324.996,79.679L326.301,80.039L327.603,80.276L328.905,80.51L330.207,80.632L331.628,80.747L334.474,80.747L335.776,80.632L337.076,80.51L338.378,80.276L339.684,80.039L340.987,79.679L342.17,79.209L343.354,78.733L344.54,78.263L345.725,77.665L346.904,76.956L347.971,76.241L349.04,75.534L350.104,74.586L351.174,73.756L352.237,72.804L353.182,71.74L354.129,70.788L354.958,69.724L355.668,68.541L356.501,67.474L357.091,66.287L357.686,65.221L358.277,64.035L358.752,62.73L359.106,61.544L359.463,60.243L359.7,58.937L359.931,57.637L360.169,56.329L360.169,55.027L360.292,53.606L360.169,52.299L360.169,50.877L359.931,49.575L359.7,48.385L359.463,47.084L359.106,45.901L358.752,44.593L358.277,43.409L357.686,42.224L357.091,41.04L356.501,39.971L355.668,38.787L354.958,37.719L354.129,36.655L353.182,35.587L352.237,34.64L351.174,33.688L350.104,32.742L349.04,31.912L347.971,31.081L346.904,30.372L345.725,29.657L344.54,29.066L343.354,28.474L342.17,27.997L340.987,27.644L339.684,27.288L338.378,26.934L337.076,26.813L335.776,26.58L334.474,26.459L333.051,26.459ZM32.12,62.374L32.12,134.208L0.501,134.208L0.501,173.207L32.12,173.207L32.12,398.19L81.624,398.19L81.624,173.207L113.598,173.207L113.598,134.208L81.624,134.208L81.624,62.374L32.12,62.374ZM479.076,129.706L475.166,129.822L471.259,130.177L469.367,130.415L467.472,130.653L465.574,131.129L463.8,131.483L462.022,131.958L460.247,132.547L458.47,133.144L456.693,133.735L455.036,134.446L453.374,135.274L451.72,136.106L450.181,136.935L448.521,137.882L446.978,138.829L445.44,139.897L443.9,141.083L442.48,142.15L440.942,143.452L439.521,144.757L438.098,146.063L435.374,148.908L432.768,151.987L430.282,155.187L427.795,158.747L426.61,158.747L426.61,133.377L376.515,133.377L376.515,398.19L425.903,398.19L425.903,206.519L426.019,204.264L426.135,202.004L426.257,199.878L426.494,197.862L426.728,195.847L427.085,193.949L427.557,192.054L428.033,190.278L428.624,188.497L429.219,186.84L429.926,185.18L430.636,183.637L431.465,182.098L432.415,180.675L433.244,179.251L434.308,177.949L435.374,176.644L436.438,175.458L437.623,174.391L438.809,173.322L439.994,172.376L441.294,171.545L442.599,170.838L444.02,170.123L445.44,169.53L446.978,168.939L448.404,168.583L450.059,168.108L451.599,167.876L453.258,167.637L455.036,167.516L458.585,167.516L460.484,167.637L462.255,167.876L463.919,168.108L465.574,168.467L467.234,168.939L468.772,169.414L470.196,170.007L471.613,170.599L473.036,171.308L474.221,172.138L475.523,172.969L476.705,173.92L477.774,174.983L478.838,176.051L479.786,177.237L480.733,178.542L481.677,179.844L482.509,181.268L483.216,182.689L483.93,184.349L484.524,185.888L485.118,187.671L485.588,189.448L486.064,191.341L486.42,193.24L486.773,195.255L487.011,197.387L487.249,199.521L487.486,201.781L487.486,204.151L487.602,206.519L487.602,398.19L536.396,398.19L536.396,192.294L536.277,188.38L536.158,184.705L535.92,181.149L535.452,177.59L534.975,174.275L534.381,171.075L533.675,167.876L532.842,164.908L531.897,162.063L530.828,159.34L529.643,156.61L528.342,154.124L526.919,151.75L525.38,149.501L523.841,147.365L522.064,145.35L520.169,143.452L518.277,141.674L516.147,140.019L514.013,138.474L511.764,137.052L509.274,135.867L506.788,134.684L504.186,133.615L501.461,132.668L498.615,131.836L495.653,131.246L492.576,130.653L489.379,130.177L486.064,129.938L482.629,129.706L479.076,129.706ZM308.298,398.19L357.214,398.19L357.214,134.207L308.298,134.207L308.298,398.19Z" style="fill:white;fill-rule:nonzero;"/>
                <path d="M728.961,398.19L676.974,398.19L603.308,257.248L602.245,257.248L602.245,398.19L552.619,398.19L552.619,0.5L602.245,0.5L602.245,247.173L603.308,247.173L668.92,134.207L720.197,134.207L653.519,253.573L728.961,398.19ZM426.609,133.377L426.609,158.747L427.795,158.747L430.282,155.187L432.768,151.987L435.374,148.908L438.097,146.063L439.521,144.757L440.941,143.452L442.48,142.15L443.899,141.082L445.439,139.897L446.978,138.829L448.52,137.882L450.18,136.935L451.719,136.106L453.374,135.274L455.035,134.445L456.692,133.735L458.469,133.144L460.246,132.546L462.022,131.958L463.799,131.483L465.573,131.128L467.471,130.652L469.366,130.415L471.259,130.176L475.166,129.822L479.075,129.705L482.628,129.705L486.063,129.938L489.378,130.176L492.575,130.652L495.652,131.245L498.615,131.836L501.461,132.667L504.185,133.614L506.788,134.683L509.274,135.867L511.764,137.052L514.012,138.473L516.146,140.019L518.276,141.673L520.169,143.452L522.064,145.35L523.84,147.364L525.379,149.501L526.918,151.75L528.341,154.124L529.642,156.61L530.828,159.339L531.897,162.064L532.842,164.908L533.674,167.875L534.38,171.075L534.975,174.274L535.451,177.59L535.92,181.149L536.157,184.704L536.276,188.379L536.395,192.294L536.395,398.19L487.602,398.19L487.602,206.519L487.485,204.151L487.485,201.78L487.249,199.522L487.01,197.386L486.773,195.254L486.419,193.239L486.063,191.341L485.587,189.448L485.118,187.671L484.524,185.888L483.93,184.349L483.216,182.689L482.509,181.267L481.677,179.843L480.732,178.542L479.785,177.236L478.837,176.051L477.774,174.983L476.704,173.919L475.523,172.968L474.221,172.138L473.035,171.308L471.612,170.599L470.195,170.006L468.772,169.414L467.233,168.939L465.573,168.466L463.918,168.108L462.254,167.875L460.483,167.637L458.585,167.515L456.809,167.515L455.035,167.515L453.258,167.637L451.598,167.875L450.058,168.108L448.403,168.583L446.978,168.939L445.439,169.53L444.019,170.123L442.599,170.837L441.294,171.545L439.993,172.376L438.808,173.322L437.623,174.39L436.437,175.458L435.374,176.644L434.307,177.949L433.244,179.251L432.415,180.674L431.464,182.097L430.635,183.636L429.925,185.18L429.218,186.84L428.624,188.497L428.033,190.277L427.557,192.054L427.085,193.948L426.728,195.847L426.493,197.861L426.256,199.878L426.134,202.003L426.018,204.264L425.902,206.519L425.902,398.19L376.514,398.19L376.514,133.377L426.609,133.377ZM308.297,134.207L357.213,134.207L357.213,398.19L308.297,398.19L308.297,134.207ZM305.932,53.606L306.048,52.299L306.048,50.877L306.286,49.575L306.403,48.385L306.758,47.084L307.116,45.9L307.472,44.593L307.942,43.409L308.418,42.223L309.01,41.04L309.719,39.971L310.429,38.786L311.142,37.718L311.967,36.654L312.92,35.586L313.867,34.64L314.929,33.688L315.998,32.741L317.062,31.794L318.129,31.081L319.193,30.372L320.377,29.657L321.562,29.066L322.748,28.473L323.931,27.997L325.117,27.644L326.418,27.288L327.719,26.933L329.025,26.813L330.326,26.58L331.628,26.458L334.474,26.458L335.775,26.58L337.076,26.813L338.377,26.933L339.683,27.288L340.986,27.644L342.17,27.997L343.354,28.473L344.539,29.066L345.725,29.657L346.903,30.372L347.97,31.081L349.04,31.911L350.104,32.741L351.173,33.688L352.236,34.64L353.181,35.586L354.129,36.654L354.958,37.718L355.668,38.786L356.5,39.971L357.091,41.04L357.686,42.223L358.276,43.409L358.752,44.593L359.106,45.9L359.462,47.084L359.699,48.385L359.931,49.575L360.169,50.877L360.169,52.299L360.291,53.606L360.169,55.027L360.169,56.328L359.931,57.636L359.699,58.937L359.462,60.243L359.106,61.544L358.752,62.729L358.276,64.035L357.686,65.22L357.091,66.287L356.5,67.473L355.668,68.541L354.958,69.724L354.129,70.788L353.181,71.74L352.236,72.804L351.173,73.756L350.104,74.586L349.04,75.533L347.97,76.241L346.903,76.956L345.725,77.665L344.539,78.262L343.354,78.732L342.17,79.208L340.986,79.679L339.683,80.039L338.377,80.276L337.076,80.51L335.775,80.631L334.474,80.747L333.05,80.747L331.628,80.747L330.206,80.631L328.904,80.51L327.602,80.276L326.3,80.039L324.995,79.679L323.693,79.208L322.509,78.732L321.324,78.262L320.139,77.665L319.076,76.956L317.891,76.241L316.823,75.533L315.76,74.586L314.813,73.756L313.745,72.804L312.798,71.74L311.967,70.672L311.142,69.724L310.429,68.541L309.719,67.473L309.01,66.287L308.418,65.22L307.942,63.913L307.472,62.729L307.116,61.544L306.758,60.243L306.403,58.937L306.286,57.636L306.048,56.328L306.048,55.027L305.932,53.606ZM286.033,398.19L237.36,398.19L237.36,206.519L237.36,204.151L237.238,201.893L237.123,199.76L236.883,197.623L236.645,195.609L236.292,193.715L235.937,191.817L235.461,189.919L234.99,188.262L234.398,186.603L233.805,184.942L233.097,183.519L232.382,181.98L231.557,180.674L230.728,179.373L229.78,178.183L228.834,176.999L227.766,175.936L226.58,174.865L225.517,174.037L224.211,173.089L222.91,172.376L221.609,171.666L220.186,171.075L218.762,170.482L217.224,170.006L215.685,169.53L214.028,169.292L212.367,168.939L210.596,168.821L208.817,168.701L206.919,168.701L205.026,168.701L203.132,168.821L201.239,169.059L199.578,169.292L197.921,169.652L196.262,170.123L194.722,170.715L193.183,171.308L191.764,172.021L190.342,172.736L189.041,173.561L187.857,174.512L186.551,175.576L185.487,176.644L184.419,177.949L183.356,179.135L182.408,180.557L181.578,181.98L180.749,183.519L180.038,185.059L179.331,186.718L178.616,188.497L178.024,190.395L177.552,192.294L177.076,194.308L176.723,196.44L176.368,198.576L176.13,200.823L175.891,203.198L175.654,205.568L175.654,208.18L175.538,210.664L175.538,398.19L125.441,398.19L125.441,0.5L175.538,0.5L175.538,156.255L178.853,153.172L182.053,150.211L185.25,147.486L188.565,144.875L191.882,142.626L195.199,140.489L198.63,138.473L201.947,136.815L205.379,135.274L208.817,133.973L212.252,132.784L215.685,131.958L219.24,131.245L222.793,130.652L226.342,130.415L229.897,130.297L233.33,130.297L236.645,130.53L239.845,130.89L243.042,131.245L246.003,131.836L248.965,132.429L251.689,133.26L254.413,134.09L257.015,135.158L259.506,136.222L261.871,137.527L264.125,138.829L266.257,140.373L268.271,141.913L270.165,143.69L271.943,145.468L273.714,147.486L275.258,149.501L276.676,151.75L278.098,154.003L279.401,156.493L280.469,158.984L281.532,161.709L282.479,164.437L283.309,167.399L284.02,170.361L284.61,173.561L285.086,176.765L285.558,180.198L285.796,183.636L285.916,187.311L286.033,190.986L286.033,398.19ZM113.598,173.207L81.624,173.207L81.624,398.19L32.12,398.19L32.12,173.207L0.5,173.207L0.5,134.207L32.12,134.207L32.12,62.374L81.624,62.374L81.624,134.207L113.598,134.207L113.598,173.207Z" style="fill:none;stroke-width:1px;stroke:rgb(113,149,196);"/>
                <path d="M1199.92,62.374L1199.92,134.207L1168.3,134.207L1168.3,173.207L1199.92,173.207L1199.92,398.19L1249.55,398.19L1249.55,173.207L1281.4,173.207L1281.4,134.207L1249.55,134.207L1249.55,62.374L1199.92,62.374ZM766.82,62.374L766.82,134.207L735.201,134.207L735.201,173.207L766.82,173.207L766.82,398.19L816.446,398.19L816.446,173.207L848.305,173.207L848.305,134.207L816.446,134.207L816.446,62.374L766.82,62.374ZM1577.72,129.706L1575.59,129.822L1573.44,130.176L1571.32,130.531L1569.31,131.129L1567.18,131.722L1565.16,132.547L1563.15,133.377L1561.26,134.328L1559.25,135.391L1557.35,136.697L1555.44,137.882L1553.67,139.306L1551.79,140.844L1550.01,142.388L1548.22,144.05L1546.56,145.826L1544.79,147.719L1543.13,149.618L1541.47,151.75L1539.83,153.765L1538.28,156.018L1536.75,158.269L1535.2,160.523L1533.67,163.015L1530.81,167.991L1528.09,173.207L1526.79,173.207L1526.79,134.207L1476.69,134.207L1476.69,398.19L1526.79,398.19L1526.79,239.934L1526.92,234.841L1527.03,229.99L1527.27,225.364L1527.74,220.98L1528.22,216.828L1528.8,212.797L1529.51,209.122L1530.46,205.68L1531.41,202.369L1532.48,199.402L1533.67,196.558L1534.95,194.071L1536.39,191.701L1537.81,189.685L1538.63,188.735L1539.47,187.786L1540.29,186.956L1541.25,186.126L1543.13,184.705L1545.14,183.281L1547.29,182.097L1549.64,180.796L1552.14,179.726L1554.86,178.66L1557.59,177.713L1560.67,176.882L1563.75,176.169L1566.94,175.458L1570.37,174.866L1574.04,174.391L1577.72,173.92L1581.62,173.561L1585.65,173.322L1589.79,173.207L1589.79,130.89L1586.6,130.298L1584.34,129.938L1582.1,129.706L1579.85,129.585L1577.72,129.706ZM1109.2,129.706L1105.31,129.822L1101.39,130.176L1097.6,130.77L1093.81,131.483L1090.14,132.547L1086.46,133.853L1082.92,135.274L1079.48,137.052L1076.05,138.951L1072.62,141.204L1069.3,143.572L1066.11,146.181L1062.9,149.143L1059.71,152.225L1056.63,155.547L1053.66,159.101L1052.24,160.878L1050.82,162.893L1049.41,164.908L1048.1,167.045L1046.8,169.292L1045.6,171.666L1044.42,174.037L1043.23,176.644L1042.17,179.251L1041.1,181.86L1040.15,184.705L1039.22,187.55L1038.27,190.511L1037.43,193.596L1036.61,196.677L1035.79,199.995L1035.06,203.31L1034.48,206.754L1033.77,210.194L1033.17,213.873L1032.22,221.336L1031.4,229.15L1030.69,237.344L1030.21,245.87L1029.99,254.88L1029.86,264.119L1029.99,272.903L1030.21,281.321L1030.56,289.49L1031.05,297.439L1031.63,304.901L1032.46,312.254L1033.42,319.247L1034.48,325.873L1035.79,332.29L1037.07,338.338L1038.62,344.139L1040.4,349.699L1041.24,352.313L1042.17,354.812L1043.12,357.293L1044.18,359.776L1045.13,362.035L1046.2,364.402L1047.39,366.549L1048.57,368.674L1049.76,370.691L1050.94,372.706L1052.24,374.606L1053.55,376.489L1054.86,378.284L1056.27,379.943L1057.69,381.586L1059.22,383.135L1060.77,384.68L1062.3,386.212L1063.96,387.519L1065.62,388.934L1067.28,390.131L1069.05,391.305L1070.83,392.499L1072.73,393.56L1074.5,394.515L1076.52,395.468L1078.42,396.416L1080.44,397.241L1082.45,397.947L1084.58,398.657L1086.7,399.254L1088.83,399.738L1091.09,400.319L1093.33,400.67L1095.58,401.028L1097.95,401.382L1100.33,401.513L1102.81,401.755L1105.17,401.867L1107.79,401.867L1110.27,401.755L1112.88,401.624L1115.48,401.382L1118.09,401.154L1120.7,400.67L1123.42,400.206L1126.15,399.609L1128.98,398.899L1131.82,398.19L1134.67,397.241L1137.51,396.29L1140.35,395.226L1143.31,394.048L1146.28,392.854L1149.36,391.548L1152.32,390.131L1152.32,349.231L1147.7,351.49L1143.31,353.376L1139.17,355.035L1135.25,356.341L1131.59,357.293L1128.28,358.133L1126.61,358.354L1125.09,358.487L1123.53,358.599L1122.12,358.599L1119.75,358.599L1117.49,358.244L1115.25,357.89L1112.99,357.293L1110.98,356.471L1108.96,355.522L1106.95,354.325L1105.17,353.018L1103.29,351.602L1101.63,349.941L1099.97,348.058L1098.42,346.041L1097,343.897L1095.58,341.528L1094.17,338.915L1092.98,336.194L1091.8,333.354L1090.74,330.277L1089.67,327.068L1088.72,323.631L1087.77,320.07L1087.06,316.283L1086.35,312.363L1085.64,308.222L1085.04,303.951L1084.58,299.455L1084.22,294.825L1083.87,289.957L1083.63,284.993L1083.38,279.77L1083.27,274.433L1083.27,268.983L1083.27,262.829L1083.38,257.009L1083.63,251.319L1083.87,245.87L1084.22,240.535L1084.58,235.55L1085.04,230.699L1085.64,226.07L1086.35,221.578L1087.06,217.303L1087.77,213.272L1088.72,209.474L1089.67,205.922L1090.6,202.489L1091.8,199.285L1092.86,196.323L1094.17,193.478L1095.48,190.871L1096.89,188.497L1098.42,186.126L1100.08,184.112L1101.74,182.213L1103.65,180.557L1105.53,179.013L1107.43,177.59L1109.56,176.407L1111.69,175.458L1114.06,174.628L1116.43,174.037L1118.8,173.561L1121.41,173.322L1124,173.207L1126.72,173.322L1129.58,173.681L1132.66,174.275L1136.09,175.221L1139.63,176.289L1143.42,177.713L1147.45,179.251L1151.73,181.149L1151.73,139.067L1145.21,136.934L1139.06,135.036L1133.12,133.377L1127.67,132.075L1122.58,131.008L1117.73,130.298L1115.48,130.06L1113.35,129.822L1111.22,129.706L1109.2,129.706ZM1666.53,130.415L1661.46,130.89L1656.59,131.599L1651.85,132.547L1647.24,133.735L1642.85,135.274L1638.58,137.052L1634.57,139.188L1630.65,141.558L1626.87,144.165L1623.32,147.012L1619.89,150.21L1616.68,153.648L1613.6,157.441L1610.63,161.469L1607.91,165.739L1605.43,170.244L1602.94,175.105L1600.69,180.198L1598.67,185.655L1596.79,191.341L1595.02,197.27L1593.47,203.433L1592.05,209.953L1590.74,216.706L1589.68,223.815L1588.73,231.167L1588.02,238.761L1587.42,246.576L1587.07,254.767L1586.85,263.184L1586.71,271.952L1586.71,279.883L1587.07,287.719L1587.42,295.183L1588.02,302.421L1588.73,309.399L1589.57,316.04L1590.63,322.571L1591.81,328.728L1593.23,334.773L1594.66,340.464L1596.44,345.912L1598.21,351.135L1600.22,356.116L1602.35,360.724L1604.72,365.242L1607.2,369.384L1609.81,373.3L1612.65,376.977L1615.61,380.409L1618.69,383.598L1622.02,386.454L1625.44,389.18L1629.12,391.548L1632.78,393.673L1636.81,395.58L1640.84,397.241L1645.11,398.657L1649.48,399.851L1654.11,400.67L1658.84,401.382L1663.7,401.755L1668.79,401.867L1673.53,401.755L1678.02,401.513L1682.41,401.028L1686.68,400.448L1690.82,399.609L1694.86,398.545L1698.64,397.354L1702.3,396.064L1705.86,394.515L1709.29,392.742L1712.49,390.842L1715.56,388.822L1718.53,386.567L1721.37,384.083L1724.09,381.473L1726.59,378.636L1728.96,375.67L1731.2,372.461L1733.22,369.142L1735.23,365.597L1737,361.923L1738.66,358.002L1740.21,353.97L1741.5,349.699L1742.69,345.315L1743.76,340.706L1744.71,335.838L1745.53,330.854L1746.13,325.761L1746.59,320.425L1746.95,314.864L1747.19,309.174L1702.3,309.174L1702.08,315.686L1701.72,321.845L1701.24,327.535L1700.52,332.757L1700.06,335.129L1699.57,337.496L1699.11,339.622L1698.51,341.767L1697.93,343.654L1697.33,345.557L1696.63,347.332L1695.92,348.989L1695.08,350.538L1694.26,351.958L1693.31,353.264L1692.24,354.458L1691.05,355.634L1689.87,356.696L1688.56,357.647L1687.15,358.487L1685.73,359.196L1684.18,359.906L1682.52,360.374L1680.75,360.858L1678.97,361.21L1677.07,361.434L1675.06,361.565L1673.06,361.676L1670.34,361.565L1667.73,361.322L1665.35,360.858L1662.98,360.26L1660.86,359.551L1658.73,358.599L1656.83,357.535L1655.06,356.228L1653.28,354.68L1651.74,353.151L1650.32,351.357L1649.01,349.344L1647.84,347.219L1646.76,344.96L1645.93,342.476L1645.11,339.755L1644.38,337.029L1643.67,334.064L1643.1,330.854L1642.5,327.535L1642.03,324.102L1641.55,320.425L1641.08,316.64L1640.73,312.719L1640.02,304.304L1639.66,295.183L1639.31,285.461L1639.18,275.032L1750.27,275.032L1750.27,255.944L1750.15,246.576L1749.91,237.567L1749.45,229.039L1748.85,220.86L1748.03,213.154L1746.95,205.81L1746.48,202.247L1745.88,198.931L1745.18,195.609L1744.46,192.293L1743.76,189.21L1742.94,186.244L1742.09,183.281L1741.27,180.557L1740.32,177.828L1739.37,175.221L1738.31,172.736L1737.24,170.361L1736.18,167.991L1734.99,165.86L1733.81,163.723L1732.62,161.71L1731.33,159.931L1730.03,158.032L1728.6,156.373L1727.17,154.832L1724.22,151.87L1721.26,149.025L1718.18,146.534L1715.1,144.05L1711.91,141.913L1708.59,139.896L1705.15,138.004L1701.83,136.46L1698.28,135.036L1694.73,133.735L1691.05,132.668L1687.39,131.836L1683.6,131.129L1679.69,130.653L1675.78,130.415L1671.75,130.298L1666.53,130.415ZM1639.18,226.781L1639.31,215.399L1639.66,209.357L1640.25,203.199L1640.6,200.114L1641.08,197.148L1641.55,194.186L1642.15,191.224L1642.97,188.379L1643.8,185.655L1644.76,182.926L1645.82,180.319L1647,177.949L1648.41,175.576L1649.84,173.445L1651.49,171.429L1653.39,169.652L1655.28,168.108L1657.54,166.685L1659.79,165.5L1662.39,164.554L1665.11,163.844L1667.97,163.485L1671.16,163.248L1673.17,163.368L1675.19,163.608L1677.07,163.844L1678.87,164.316L1680.64,164.908L1682.16,165.739L1683.83,166.568L1685.25,167.516L1686.68,168.701L1687.97,169.89L1689.16,171.308L1690.34,172.852L1691.4,174.512L1692.35,176.289L1693.31,178.305L1694.12,180.319L1694.86,182.573L1695.56,184.942L1696.27,187.55L1696.85,190.277L1697.45,193.118L1697.93,196.202L1698.4,199.521L1698.87,202.957L1699.22,206.519L1699.57,210.306L1699.82,214.335L1700.06,218.49L1700.3,227.26L1700.41,236.743L1639.18,236.743L1639.18,226.781ZM931.917,130.415L926.826,130.89L921.975,131.599L917.236,132.547L912.607,133.735L908.225,135.274L903.969,137.052L899.939,139.188L896.042,141.558L892.233,144.165L888.688,147.012L885.259,150.21L882.049,153.648L878.971,157.441L876.018,161.469L873.291,165.739L870.801,170.244L868.32,175.105L866.071,180.198L864.058,185.655L862.162,191.341L860.379,197.27L858.847,203.433L857.424,209.953L856.122,216.706L855.055,223.815L854.109,231.167L853.398,238.761L852.806,246.576L852.454,254.767L852.216,263.184L852.09,271.952L852.216,279.883L852.454,287.719L852.806,295.183L853.398,302.421L854.109,309.399L854.937,316.04L856,322.571L857.186,328.728L858.609,334.773L860.025,340.464L861.809,345.912L863.582,351.135L865.597,356.116L867.724,360.724L870.094,365.242L872.585,369.384L875.186,373.3L878.036,376.977L880.984,380.409L884.062,383.598L887.384,386.454L890.815,389.18L894.493,391.548L898.282,393.673L902.198,395.58L906.208,397.241L910.479,398.657L914.865,399.851L919.476,400.67L924.214,401.382L929.065,401.755L934.157,401.867L938.898,401.755L943.412,401.513L947.78,401.028L952.052,400.448L956.194,399.609L960.225,398.545L964.009,397.354L967.689,396.064L971.232,394.515L974.664,392.742L977.872,390.842L980.952,388.822L983.9,386.567L986.755,384.083L989.479,381.473L991.959,378.636L994.33,375.67L996.588,372.461L998.585,369.142L1000.6,365.597L1002.39,361.923L1004.03,358.002L1005.58,353.97L1006.88,349.699L1008.06,345.315L1009.12,340.706L1010.08,335.838L1010.92,330.854L1011.5,325.761L1011.98,320.425L1012.34,314.864L1012.56,309.174L967.689,309.174L967.445,315.686L967.09,321.845L966.624,327.535L965.914,332.757L965.43,335.129L964.963,337.496L964.478,339.622L963.897,341.767L963.303,343.654L962.706,345.557L961.995,347.332L961.289,348.989L960.467,350.538L959.624,351.958L958.674,353.264L957.609,354.458L956.434,355.634L955.243,356.696L953.936,357.647L952.517,358.487L951.099,359.196L949.572,359.906L947.907,360.374L946.137,360.858L944.346,361.21L942.462,361.434L940.445,361.565L938.43,361.676L935.709,361.565L933.094,361.322L930.724,360.858L928.356,360.26L926.228,359.551L924.102,358.599L922.196,357.535L920.428,356.228L918.653,354.812L917.105,353.151L915.687,351.357L914.381,349.344L913.207,347.219L912.254,344.96L911.304,342.476L910.479,339.755L909.774,337.029L909.063,334.064L908.465,330.854L907.871,327.535L907.402,324.102L906.918,320.425L906.453,316.64L906.098,312.719L905.388,304.191L905.035,295.183L904.681,285.461L904.57,275.032L1015.64,275.032L1015.64,255.944L1015.52,246.576L1015.28,237.567L1014.82,229.039L1014.22,220.86L1013.4,213.154L1012.45,205.81L1011.85,202.247L1011.27,198.809L1010.57,195.494L1009.84,192.293L1009.12,189.21L1008.31,186.244L1007.48,183.281L1006.64,180.557L1005.69,177.828L1004.76,175.221L1003.68,172.736L1002.61,170.361L1001.55,167.991L1000.37,165.86L999.181,163.723L998.005,161.71L996.701,159.931L995.393,158.032L993.974,156.373L992.556,154.832L989.589,151.87L986.624,149.025L983.545,146.534L980.468,144.05L977.166,141.913L973.955,139.896L970.522,138.004L967.199,136.46L963.657,135.036L960.111,133.735L956.434,132.668L952.762,131.836L948.971,131.129L945.054,130.653L941.155,130.415L937.127,130.298L931.917,130.415ZM904.681,227.622L905.035,219.077L905.145,215.168L905.5,211.257L905.744,207.583L906.098,204.02L906.564,200.708L907.049,197.387L907.515,194.309L908.112,191.462L908.709,188.617L909.289,186.01L910.017,183.518L910.836,181.268L911.656,179.013L912.497,176.999L913.562,175.105L914.733,173.322L915.93,171.783L917.349,170.244L918.765,168.938L920.314,167.753L921.975,166.685L923.748,165.86L925.632,165.029L927.533,164.438L929.66,163.961L931.789,163.608L934.157,163.368L936.529,163.248L938.543,163.368L940.556,163.608L942.462,163.844L944.236,164.316L945.892,164.908L947.554,165.621L949.084,166.568L950.634,167.516L952.052,168.701L953.356,169.89L954.532,171.308L955.727,172.852L956.791,174.512L957.74,176.289L958.674,178.183L959.515,180.319L960.225,182.573L961.045,184.942L961.641,187.55L962.238,190.277L962.834,193.118L963.303,196.202L963.768,199.521L964.253,202.957L964.61,206.519L964.963,210.306L965.187,214.335L965.43,218.49L965.673,227.26L965.783,236.743L904.57,236.743L904.681,227.622ZM1408.12,133.377L1408.12,313.432L1408.01,319.717L1407.66,325.406L1407.41,328.131L1407.17,330.741L1406.82,333.354L1406.46,335.726L1405.99,337.964L1405.53,340.109L1404.93,342.125L1404.33,344.025L1403.62,345.799L1402.91,347.461L1402.21,349.123L1401.37,350.538L1400.44,351.845L1399.48,353.151L1398.42,354.325L1397.35,355.39L1396.16,356.341L1394.85,357.293L1393.55,358.133L1392.13,358.841L1390.6,359.551L1389.05,360.016L1387.39,360.5L1385.62,360.971L1383.85,361.21L1381.95,361.434L1379.93,361.565L1377.93,361.676L1376.03,361.565L1374.13,361.434L1372.36,361.21L1370.58,360.971L1368.92,360.612L1367.26,360.148L1365.73,359.551L1364.18,358.954L1362.76,358.133L1361.35,357.405L1360.04,356.471L1358.86,355.522L1357.67,354.458L1356.5,353.264L1355.43,352.087L1354.35,350.651L1353.42,349.344L1352.58,347.816L1351.76,346.267L1350.92,344.605L1350.21,342.832L1349.63,340.931L1349.03,339.045L1348.55,337.029L1348.08,335.015L1347.62,332.757L1347.26,330.503L1347.01,328.131L1346.78,325.761L1346.66,323.28L1346.54,320.667L1346.54,317.945L1346.54,133.377L1297.63,133.377L1297.63,322.795L1297.87,328.019L1298.23,333.112L1298.81,337.964L1299.54,342.722L1300.24,347.219L1301.31,351.49L1302.37,355.634L1303.68,359.551L1305.09,363.225L1306.62,366.773L1308.28,370.223L1310.19,373.412L1312.2,376.38L1313.27,377.796L1314.33,379.106L1315.51,380.409L1316.7,381.716L1317.87,383.022L1319.18,384.196L1320.49,385.393L1321.79,386.454L1324.63,388.583L1327.6,390.483L1330.79,392.39L1334.22,394.048L1337.78,395.468L1341.46,396.77L1345.36,397.947L1349.5,399.012L1353.77,399.851L1358.27,400.561L1362.88,401.154L1367.75,401.513L1372.71,401.755L1377.93,401.867L1383.14,401.755L1388.1,401.513L1392.97,401.154L1397.58,400.561L1401.96,399.851L1406.24,399.012L1410.38,397.947L1414.17,396.77L1417.95,395.334L1421.39,393.919L1424.71,392.144L1427.9,390.371L1429.44,389.419L1430.87,388.358L1432.29,387.276L1433.59,386.212L1434.89,385.035L1436.2,383.844L1437.49,382.668L1438.68,381.473L1439.75,380.167L1440.81,378.748L1441.88,377.444L1442.94,376.025L1444.84,372.945L1446.61,369.626L1448.27,366.193L1449.82,362.519L1451.11,358.712L1452.42,354.567L1453.48,350.296L1454.43,345.912L1455.14,341.171L1455.85,336.32L1456.33,331.208L1456.69,326.003L1456.91,320.554L1456.91,314.864L1456.91,133.377L1408.12,133.377Z" style="fill:white;fill-opacity:0.8;fill-rule:nonzero;"/>
                <clipPath id="_clip2">
                    <rect x="0" y="0" width="1750.77" height="402.367"/>
                </clipPath>
                <g clip-path="url(#_clip2)">
                    <path d="M1700.41,236.743L1700.3,227.261L1700.06,218.49L1699.82,214.336L1699.57,210.306L1699.22,206.519L1698.87,202.956L1698.4,199.522L1697.93,196.202L1697.45,193.118L1696.85,190.278L1696.27,187.55L1695.56,184.942L1694.86,182.573L1694.13,180.319L1693.31,178.305L1692.36,176.289L1691.4,174.513L1690.34,172.852L1689.16,171.308L1687.97,169.89L1686.68,168.701L1685.25,167.515L1683.83,166.568L1682.16,165.739L1680.64,164.908L1678.87,164.316L1677.07,163.845L1675.19,163.608L1673.18,163.368L1671.16,163.248L1667.97,163.486L1665.11,163.845L1662.39,164.554L1659.79,165.501L1657.54,166.685L1655.28,168.108L1653.39,169.652L1651.49,171.429L1649.84,173.445L1648.41,175.576L1647,177.95L1645.82,180.319L1644.76,182.926L1643.81,185.655L1642.97,188.379L1642.15,191.224L1641.55,194.186L1641.08,197.148L1640.6,200.115L1640.25,203.199L1639.66,209.356L1639.31,215.399L1639.18,226.782L1639.18,236.743L1700.41,236.743ZM1750.27,275.032L1639.18,275.032L1639.31,285.461L1639.66,295.183L1640.02,304.304L1640.73,312.719L1641.08,316.64L1641.55,320.425L1642.03,324.102L1642.5,327.535L1643.1,330.854L1643.67,334.064L1644.39,337.029L1645.11,339.755L1645.93,342.476L1646.76,344.961L1647.84,347.219L1649.01,349.345L1650.32,351.357L1651.74,353.151L1653.28,354.68L1655.06,356.228L1656.83,357.535L1658.73,358.599L1660.86,359.552L1662.99,360.261L1665.35,360.858L1667.73,361.322L1670.34,361.564L1673.06,361.677L1675.06,361.564L1677.07,361.434L1678.97,361.21L1680.75,360.858L1682.52,360.374L1684.18,359.906L1685.73,359.196L1687.15,358.487L1688.56,357.647L1689.87,356.696L1691.05,355.635L1692.24,354.458L1693.31,353.264L1694.26,351.958L1695.08,350.538L1695.92,348.989L1696.63,347.332L1697.33,345.557L1697.93,343.654L1698.51,341.767L1699.11,339.622L1699.57,337.496L1700.06,335.129L1700.52,332.758L1701.24,327.535L1701.72,321.845L1702.08,315.686L1702.3,309.174L1747.19,309.174L1746.95,314.864L1746.59,320.425L1746.13,325.761L1745.53,330.854L1744.71,335.838L1743.76,340.706L1742.69,345.315L1741.5,349.699L1740.21,353.971L1738.66,358.003L1737,361.923L1735.23,365.597L1733.22,369.141L1731.2,372.461L1728.96,375.671L1726.59,378.636L1724.09,381.473L1721.37,384.084L1718.53,386.567L1715.56,388.822L1712.49,390.842L1709.3,392.742L1705.86,394.515L1702.3,396.064L1698.64,397.354L1694.86,398.545L1690.82,399.609L1686.68,400.448L1682.41,401.028L1678.02,401.513L1673.53,401.755L1668.79,401.867L1663.7,401.755L1658.84,401.383L1654.11,400.67L1649.48,399.851L1645.11,398.657L1640.84,397.241L1636.81,395.58L1632.78,393.673L1629.12,391.548L1625.44,389.18L1622.02,386.454L1618.69,383.598L1615.62,380.409L1612.65,376.977L1609.81,373.3L1607.2,369.384L1604.72,365.242L1602.35,360.724L1600.22,356.116L1598.21,351.136L1596.44,345.912L1594.66,340.464L1593.23,334.773L1591.81,328.728L1590.63,322.571L1589.57,316.04L1588.73,309.399L1588.02,302.421L1587.42,295.183L1587.07,287.719L1586.72,279.883L1586.72,271.953L1586.85,263.184L1587.07,254.767L1587.42,246.576L1588.02,238.761L1588.73,231.167L1589.68,223.815L1590.74,216.706L1592.05,209.953L1593.47,203.432L1595.02,197.27L1596.79,191.341L1598.67,185.655L1600.69,180.199L1602.94,175.105L1605.43,170.244L1607.91,165.739L1610.63,161.47L1613.6,157.441L1616.68,153.649L1619.89,150.211L1623.32,147.012L1626.87,144.165L1630.65,141.557L1634.57,139.188L1638.58,137.053L1642.85,135.274L1647.24,133.735L1651.85,132.547L1656.59,131.599L1661.46,130.89L1666.53,130.415L1671.76,130.298L1675.78,130.415L1679.69,130.653L1683.6,131.129L1687.39,131.836L1691.05,132.667L1694.73,133.735L1698.28,135.036L1701.83,136.46L1705.15,138.004L1708.59,139.897L1711.91,141.913L1715.1,144.05L1718.18,146.534L1721.26,149.025L1724.22,151.87L1727.17,154.832L1728.61,156.373L1730.03,158.033L1731.33,159.931L1732.62,161.709L1733.81,163.723L1734.99,165.859L1736.18,167.991L1737.25,170.362L1738.31,172.736L1739.37,175.221L1740.32,177.827L1741.27,180.557L1742.09,183.281L1742.94,186.243L1743.76,189.21L1744.46,192.294L1745.18,195.609L1745.88,198.931L1746.48,202.247L1746.95,205.809L1748.03,213.154L1748.85,220.861L1749.45,229.038L1749.91,237.567L1750.16,246.576L1750.27,255.945L1750.27,275.032ZM1589.79,173.207L1585.65,173.323L1581.62,173.561L1577.72,173.92L1574.05,174.39L1570.37,174.866L1566.94,175.458L1563.75,176.169L1560.67,176.882L1557.59,177.712L1554.86,178.66L1552.14,179.726L1549.64,180.796L1547.29,182.097L1545.14,183.281L1543.13,184.704L1541.25,186.126L1540.29,186.957L1539.47,187.786L1538.63,188.735L1537.81,189.685L1536.39,191.701L1534.96,194.071L1533.67,196.557L1532.48,199.402L1531.41,202.369L1530.46,205.681L1529.51,209.122L1528.8,212.797L1528.22,216.828L1527.74,220.98L1527.27,225.364L1527.03,229.99L1526.92,234.841L1526.79,239.934L1526.79,398.19L1476.69,398.19L1476.69,134.207L1526.79,134.207L1526.79,173.207L1528.09,173.207L1530.81,167.991L1533.67,163.015L1535.2,160.524L1536.75,158.269L1538.28,156.018L1539.83,153.765L1541.47,151.75L1543.13,149.618L1544.79,147.72L1546.56,145.826L1548.22,144.05L1550.01,142.388L1551.79,140.845L1553.67,139.306L1555.44,137.883L1557.35,136.697L1559.25,135.391L1561.26,134.328L1563.15,133.377L1565.16,132.547L1567.18,131.722L1569.31,131.129L1571.32,130.531L1573.45,130.176L1575.59,129.822L1577.72,129.705L1579.85,129.585L1582.1,129.705L1584.34,129.938L1586.6,130.298L1589.79,130.89L1589.79,173.207ZM1456.91,314.864L1456.91,320.555L1456.69,326.003L1456.33,331.209L1455.85,336.319L1455.14,341.171L1454.43,345.912L1453.48,350.296L1452.42,354.567L1451.11,358.712L1449.82,362.519L1448.28,366.193L1446.61,369.626L1444.84,372.945L1442.94,376.025L1441.88,377.444L1440.81,378.748L1439.75,380.167L1438.68,381.473L1437.49,382.668L1436.2,383.845L1434.89,385.035L1433.59,386.212L1432.29,387.276L1430.87,388.358L1429.44,389.419L1427.9,390.371L1424.71,392.144L1421.39,393.919L1417.95,395.335L1414.17,396.77L1410.38,397.947L1406.24,399.012L1401.96,399.851L1397.58,400.56L1392.97,401.154L1388.1,401.513L1383.14,401.755L1377.93,401.867L1372.71,401.755L1367.75,401.513L1362.88,401.154L1358.27,400.56L1353.77,399.851L1349.5,399.012L1345.36,397.947L1341.46,396.77L1337.78,395.468L1334.22,394.049L1330.79,392.39L1327.6,390.483L1324.63,388.583L1321.79,386.454L1320.49,385.393L1319.18,384.196L1317.88,383.022L1316.7,381.716L1315.51,380.409L1314.33,379.106L1313.27,377.796L1312.2,376.381L1310.19,373.412L1308.28,370.222L1306.62,366.773L1305.09,363.225L1303.68,359.552L1302.37,355.635L1301.31,351.49L1300.24,347.219L1299.54,342.722L1298.81,337.964L1298.23,333.112L1297.87,328.019L1297.63,322.796L1297.63,317.347L1297.63,133.377L1346.54,133.377L1346.54,320.667L1346.67,323.28L1346.78,325.761L1347.02,328.132L1347.26,330.503L1347.62,332.758L1348.08,335.015L1348.55,337.029L1349.03,339.045L1349.63,340.931L1350.21,342.832L1350.92,344.605L1351.76,346.267L1352.58,347.816L1353.42,349.345L1354.35,350.651L1355.43,352.087L1356.5,353.264L1357.67,354.458L1358.86,355.522L1360.04,356.471L1361.35,357.405L1362.77,358.133L1364.18,358.954L1365.73,359.552L1367.26,360.148L1368.92,360.612L1370.58,360.971L1372.36,361.21L1374.13,361.434L1376.03,361.564L1377.93,361.677L1379.93,361.564L1381.95,361.434L1383.85,361.21L1385.62,360.971L1387.39,360.5L1389.05,360.015L1390.6,359.552L1392.13,358.842L1393.55,358.133L1394.85,357.293L1396.16,356.341L1397.35,355.389L1398.42,354.325L1399.48,353.151L1400.44,351.845L1401.37,350.538L1402.21,349.123L1402.92,347.461L1403.63,345.8L1404.34,344.025L1404.93,342.126L1405.53,340.109L1405.99,337.964L1406.46,335.725L1406.82,333.354L1407.17,330.741L1407.41,328.132L1407.66,325.406L1408.01,319.718L1408.12,313.431L1408.12,133.377L1456.91,133.377L1456.91,314.864ZM1281.4,173.207L1249.55,173.207L1249.55,398.19L1199.92,398.19L1199.92,173.207L1168.3,173.207L1168.3,134.207L1199.92,134.207L1199.92,62.374L1249.55,62.374L1249.55,134.207L1281.4,134.207L1281.4,173.207ZM1152.32,390.132L1149.36,391.548L1146.28,392.854L1143.31,394.049L1140.35,395.225L1137.51,396.29L1134.68,397.241L1131.82,398.19L1128.98,398.899L1126.15,399.609L1123.42,400.206L1120.7,400.67L1118.09,401.154L1115.48,401.383L1112.88,401.625L1110.27,401.755L1107.79,401.867L1105.17,401.867L1102.81,401.755L1100.33,401.513L1097.95,401.383L1095.58,401.028L1093.33,400.67L1091.09,400.318L1088.83,399.738L1086.7,399.254L1084.58,398.657L1082.45,397.947L1080.44,397.241L1078.42,396.416L1076.52,395.468L1074.5,394.515L1072.73,393.56L1070.83,392.5L1069.06,391.305L1067.28,390.132L1065.62,388.934L1063.96,387.518L1062.3,386.212L1060.77,384.68L1059.22,383.135L1057.69,381.586L1056.27,379.942L1054.86,378.284L1053.55,376.489L1052.25,374.606L1050.94,372.706L1049.76,370.69L1048.57,368.674L1047.39,366.549L1046.2,364.402L1045.14,362.035L1044.18,359.776L1043.12,357.293L1042.17,354.812L1041.24,352.312L1040.4,349.699L1038.62,344.139L1037.08,338.339L1035.79,332.29L1034.48,325.873L1033.42,319.248L1032.46,312.255L1031.63,304.901L1031.05,297.438L1030.56,289.49L1030.21,281.321L1029.99,272.903L1029.86,264.118L1029.99,254.88L1030.21,245.87L1030.69,237.344L1031.4,229.151L1032.22,221.335L1033.17,213.872L1033.77,210.194L1034.48,206.754L1035.06,203.31L1035.79,199.994L1036.61,196.678L1037.43,193.596L1038.27,190.512L1039.22,187.55L1040.15,184.704L1041.1,181.86L1042.17,179.251L1043.23,176.644L1044.43,174.037L1045.6,171.666L1046.8,169.292L1048.1,167.045L1049.41,164.908L1050.83,162.893L1052.25,160.878L1053.66,159.102L1056.63,155.547L1059.71,152.225L1062.9,149.143L1066.11,146.181L1069.3,143.572L1072.62,141.204L1076.05,138.951L1079.48,137.053L1082.92,135.274L1086.46,133.853L1090.14,132.547L1093.81,131.483L1097.6,130.77L1101.39,130.176L1105.31,129.822L1109.21,129.705L1111.22,129.705L1113.35,129.822L1115.48,130.06L1117.73,130.298L1122.58,131.008L1127.68,132.075L1133.12,133.377L1139.06,135.036L1145.22,136.935L1151.73,139.066L1151.73,181.149L1147.46,179.251L1143.42,177.712L1139.64,176.289L1136.09,175.221L1132.66,174.275L1129.58,173.682L1126.72,173.323L1124,173.207L1121.41,173.323L1118.8,173.561L1116.43,174.037L1114.06,174.628L1111.69,175.458L1109.56,176.407L1107.43,177.591L1105.53,179.013L1103.65,180.557L1101.74,182.213L1100.08,184.112L1098.42,186.126L1096.89,188.497L1095.48,190.87L1094.17,193.478L1092.86,196.323L1091.8,199.285L1090.61,202.489L1089.67,205.922L1088.72,209.475L1087.77,213.272L1087.06,217.303L1086.35,221.577L1085.64,226.07L1085.05,230.7L1084.58,235.551L1084.22,240.535L1083.87,245.87L1083.63,251.319L1083.39,257.009L1083.27,262.829L1083.27,274.433L1083.39,279.77L1083.63,284.993L1083.87,289.957L1084.22,294.825L1084.58,299.454L1085.05,303.951L1085.64,308.222L1086.35,312.364L1087.06,316.283L1087.77,320.07L1088.72,323.632L1089.67,327.067L1090.74,330.277L1091.8,333.354L1092.98,336.193L1094.17,338.915L1095.58,341.528L1097.01,343.896L1098.42,346.042L1099.97,348.058L1101.63,349.941L1103.29,351.602L1105.17,353.018L1106.95,354.325L1108.97,355.522L1110.98,356.471L1112.99,357.293L1115.25,357.889L1117.49,358.245L1119.75,358.599L1123.53,358.599L1125.09,358.487L1126.61,358.354L1128.28,358.133L1131.6,357.293L1135.25,356.341L1139.17,355.035L1143.31,353.377L1147.7,351.49L1152.32,349.231L1152.32,390.132ZM965.784,236.743L965.675,227.261L965.431,218.49L965.187,214.336L964.964,210.306L964.61,206.519L964.254,202.956L963.769,199.522L963.304,196.202L962.835,193.118L962.239,190.278L961.642,187.55L961.046,184.942L960.225,182.573L959.515,180.319L958.675,178.183L957.741,176.289L956.792,174.513L955.727,172.852L954.533,171.308L953.357,169.89L952.053,168.701L950.636,167.515L949.085,166.568L947.555,165.621L945.893,164.908L944.237,164.316L942.463,163.845L940.557,163.608L938.544,163.368L936.529,163.248L934.158,163.368L931.79,163.608L929.661,163.961L927.534,164.437L925.633,165.029L923.749,165.859L921.975,166.685L920.315,167.753L918.766,168.939L917.349,170.244L915.931,171.783L914.734,173.323L913.562,175.105L912.498,176.999L911.657,179.013L910.837,181.267L910.018,183.519L909.29,186.01L908.71,188.617L908.113,191.462L907.515,194.308L907.05,197.387L906.565,200.707L906.099,204.02L905.745,207.582L905.501,211.258L905.145,215.168L905.036,219.076L904.682,227.622L904.57,236.743L965.784,236.743ZM1015.64,275.032L904.57,275.032L904.682,285.461L905.036,295.183L905.389,304.191L906.099,312.719L906.453,316.64L906.919,320.425L907.403,324.102L907.872,327.535L908.466,330.854L909.064,334.064L909.774,337.029L910.48,339.755L911.305,342.476L912.255,344.961L913.208,347.219L914.382,349.345L915.688,351.357L917.105,353.151L918.654,354.812L920.429,356.228L922.197,357.535L924.102,358.599L926.229,359.552L928.356,360.261L930.724,360.858L933.096,361.322L935.71,361.564L938.431,361.677L940.445,361.564L942.463,361.434L944.347,361.21L946.138,360.858L947.908,360.374L949.573,359.906L951.099,359.196L952.518,358.487L953.936,357.647L955.243,356.696L956.434,355.635L957.61,354.458L958.675,353.264L959.625,351.958L960.468,350.538L961.29,348.989L961.996,347.332L962.707,345.557L963.304,343.654L963.897,341.767L964.479,339.622L964.964,337.496L965.431,335.129L965.915,332.758L966.625,327.535L967.091,321.845L967.445,315.686L967.689,309.174L1012.56,309.174L1012.34,314.864L1011.98,320.425L1011.5,325.761L1010.92,330.854L1010.08,335.838L1009.12,340.706L1008.06,345.315L1006.89,349.699L1005.58,353.971L1004.03,358.003L1002.39,361.923L1000.6,365.597L998.586,369.141L996.59,372.461L994.331,375.671L991.96,378.636L989.48,381.473L986.756,384.084L983.901,386.567L980.953,388.822L977.873,390.842L974.664,392.742L971.232,394.515L967.689,396.064L964.01,397.354L960.225,398.545L956.194,399.609L952.053,400.448L947.78,401.028L943.413,401.513L938.899,401.755L934.158,401.867L929.066,401.755L924.215,401.383L919.476,400.67L914.866,399.851L910.48,398.657L906.209,397.241L902.199,395.58L898.283,393.673L894.493,391.548L890.816,389.18L887.385,386.454L884.063,383.598L880.985,380.409L878.037,376.977L875.186,373.3L872.586,369.384L870.096,365.242L867.724,360.724L865.598,356.116L863.583,351.136L861.809,345.912L860.026,340.464L858.61,334.773L857.186,328.728L856.001,322.571L854.937,316.04L854.109,309.399L853.398,302.421L852.807,295.183L852.454,287.719L852.217,279.883L852.091,271.953L852.217,263.184L852.454,254.767L852.807,246.576L853.398,238.761L854.109,231.167L855.057,223.815L856.123,216.706L857.425,209.953L858.848,203.432L860.38,197.27L862.163,191.341L864.058,185.655L866.072,180.199L868.321,175.105L870.802,170.244L873.292,165.739L876.019,161.47L878.972,157.441L882.05,153.649L885.26,150.211L888.689,147.012L892.234,144.165L896.043,141.557L899.94,139.188L903.97,137.053L908.225,135.274L912.607,133.735L917.237,132.547L921.975,131.599L926.827,130.89L931.918,130.415L937.128,130.298L941.155,130.415L945.056,130.653L948.973,131.129L952.763,131.836L956.434,132.667L960.112,133.735L963.657,135.036L967.2,136.46L970.522,138.004L973.956,139.897L977.167,141.913L980.469,144.05L983.546,146.534L986.625,149.025L989.59,151.87L992.557,154.832L993.974,156.373L995.394,158.033L996.702,159.931L998.006,161.709L999.182,163.723L1000.38,165.859L1001.55,167.991L1002.61,170.362L1003.68,172.736L1004.76,175.221L1005.69,177.827L1006.64,180.557L1007.48,183.281L1008.31,186.243L1009.12,189.21L1009.84,192.294L1010.57,195.494L1011.27,198.809L1011.85,202.247L1012.45,205.809L1013.4,213.154L1014.22,220.861L1014.82,229.038L1015.28,237.567L1015.52,246.576L1015.64,255.945L1015.64,275.032ZM848.307,173.207L816.447,173.207L816.447,398.19L766.821,398.19L766.821,173.207L735.202,173.207L735.202,134.207L766.821,134.207L766.821,62.374L816.447,62.374L816.447,134.207L848.307,134.207L848.307,173.207Z" style="fill:none;stroke-width:1px;stroke:rgb(177,190,206);"/>
                </g>
            </g>
        </g>
    </g>
</svg>
