<?xml version="1.0" standalone="no"?>
<!DOCTYPE svg PUBLIC "-//W3C//DTD SVG 1.1//EN" "http://www.w3.org/Graphics/SVG/1.1/DTD/svg11.dtd">
<svg width="100%" height="100%" viewBox="0 0 80 24" version="1.1" xmlns="http://www.w3.org/2000/svg" xmlns:xlink="http://www.w3.org/1999/xlink" xml:space="preserve" style="fill-rule:evenodd;clip-rule:evenodd;stroke-linejoin:round;stroke-miterlimit:1.41421;">
    <path d="M25.1,5.4L29.1,5.4L32.2,13.7L32.3,13.7L35.1,5.4L38.9,5.4L34.1,17.6L30.1,17.6L25.1,5.4Z" style="fill:white;fill-rule:nonzero;"/>
    <path d="M10.4,8.4L6.7,8.4L6.7,12.5C6.7,13.2 6.8,14.1 7.4,14.5C8,14.9 8.9,14.8 9.6,14.7C10,14.7 10.2,14.6 10.4,14.4L10.4,17.5C9.9,17.6 9.5,17.7 9,17.8C6.4,18.1 2.6,17.6 2.6,14.2L2.6,8.4L0,8.4L0,5.4L2.6,5.4L2.6,1.8L6.7,1.8L6.7,5.4L10.4,5.4L10.4,8.4ZM20.9,5.4L24.6,5.4L24.6,17.6L20.9,17.6L20.9,5.4ZM20.7,2.1C20.7,1 21.6,0.1 22.7,0.1C23.8,0.1 24.7,1 24.7,2.1C24.7,3.2 23.8,4.1 22.7,4.1C21.7,4.1 20.7,3.2 20.7,2.1" style="fill:white;fill-rule:nonzero;"/>
    <path d="M67.1,11.5C67.1,13.1 68.1,14.6 69.8,14.6C71.6,14.6 72.5,13.2 72.5,11.5C72.5,9.9 71.5,8.4 69.8,8.4C68,8.4 67.1,9.8 67.1,11.5M63.7,11.5C63.7,8.9 65.1,6.4 67.6,5.5C70.1,4.6 73.1,5.3 74.7,7.4C76.2,9.4 76.4,12.4 75.2,14.7C74,17.1 71.2,18.2 68.6,17.7C65.5,17.2 63.7,14.5 63.7,11.5" style="fill:white;fill-rule:nonzero;"/>
    <path d="M77.7,8.8C76.8,8.8 76.1,8.1 76.1,7.2C76.1,6.3 76.8,5.6 77.7,5.6C78.6,5.6 79.3,6.3 79.3,7.2C79.4,8 78.6,8.8 77.7,8.8M77.7,5.1C76.6,5.1 75.7,6 75.7,7.1C75.7,8.2 76.6,9.1 77.7,9.1C78.8,9.1 79.7,8.2 79.7,7.1C79.7,6 78.9,5.1 77.7,5.1M78,6.8C78,6.6 77.8,6.6 77.6,6.6L77.4,6.6L77.4,7L77.5,7C77.8,7 78,7 78,6.8M78.8,8.1L78.2,8.1L77.7,7.4L77.5,7.4L77.5,8.1L77,8.1L77,6.2L78.1,6.2C78.5,6.3 78.7,6.7 78.4,7.1C78.3,7.2 78.2,7.3 78.1,7.3L78.8,8.1Z" style="fill:white;fill-rule:nonzero;"/>
    <path d="M59.7,5.3L59.7,7L59.6,7C59.5,6.9 59.4,6.8 59.2,6.5C56.8,4.4 52.6,4.8 51.1,7.8C50.3,9.3 50.2,11.2 50.4,12.9C50.6,14.4 51.2,16.1 52.5,17C54,18 56,18.2 57.7,17.5C58.5,17.2 59,16.6 59.2,16.3L59.2,17.5C59.2,18.4 59,19.1 58.5,19.6C57.4,20.7 55.4,20.6 54,20.3C53.3,20.1 52.5,19.8 51.8,19.3L50.1,22C51.1,22.7 52,23.1 53,23.4C55.7,24.1 59.4,24.1 61.4,22C62.6,20.8 63,19.1 63,16.7L63,5.3L59.7,5.3ZM58.8,13.7C57.8,14.9 55.8,14.9 54.8,13.7C53.8,12.5 53.8,10.4 54.8,9.2C55.8,8 57.8,8 58.8,9.2C59.8,10.4 59.8,12.5 58.8,13.7C58.3,14.3 59.3,13.1 58.8,13.7Z" style="fill:white;fill-rule:nonzero;"/>
    <path d="M11.4,5.4L15.2,5.4L15.2,7.4C15.6,6.6 16.1,6.1 16.6,5.7C17.8,4.9 19.7,5.2 19.9,5.3L19.9,8.7C19.1,8.5 17.5,8.2 16.4,8.9C15.7,9.3 15.1,9.9 15.1,12.6L15.1,17.7L11.3,17.7L11.3,5.4L11.4,5.4Z" style="fill:white;fill-rule:nonzero;"/>
    <path d="M42.4,12.7C41.7,13.2 41.1,14.1 41.8,14.8C42.5,15.5 43.7,15.4 44.5,15.1C45.4,14.8 46.1,14.1 46.1,13L46.1,12.2C46.2,12.3 43.4,12.1 42.4,12.7ZM46.2,16.1C45.7,16.7 45.2,17.2 44.5,17.5C41.8,18.6 38,17.5 38,14.2C38,10.7 41.8,10 44.5,9.9L46.2,9.9C46.2,9.2 46,8.7 45.5,8.3C44.6,7.5 43.2,7.6 42.1,8.1C41.6,8.4 41.1,8.7 40.7,9.2L38.7,7.1C39.4,6.5 40.2,6 41.2,5.6C42.8,5 44.8,4.9 46.4,5.4C48,5.8 49,7.1 49.4,8.7C49.6,9.5 49.6,10.4 49.6,11.4L49.6,17.6L46.2,17.6L46.2,16.1L46.2,16.1Z" style="fill:white;fill-rule:nonzero;"/>
</svg>
